<svg xmlns="http://www.w3.org/2000/svg" viewBox="0 0 64 64" shape-rendering="crispEdges" data-size="64">
  <title>Ярмарочный день</title>
  <style>
    .micro { }
    .tiny { }
    svg[data-size="32"] .tiny, svg[data-size="24"] .tiny { display:none }
    svg[data-size="24"] .micro { display:none }
</style>
  <g id="tightened_canvas" transform="translate(-8.1739 -3.3043) scale(1.2174)">
    <rect x="40" y="8" width="14" height="14" fill="#262626" />
    <rect x="42" y="10" width="10" height="10" fill="#e8b83a" />
    <rect x="10" y="22" width="40" height="8" fill="#262626" />
    <rect x="12" y="24" width="8" height="4" fill="#c03434" />
    <rect x="20" y="24" width="8" height="4" fill="#efe6d4" />
    <rect x="28" y="24" width="8" height="4" fill="#4f9a3c" />
    <rect x="36" y="24" width="6" height="4" fill="#efe6d4" />
    <rect x="42" y="24" width="6" height="4" fill="#c03434" />
    <rect x="14" y="30" width="4" height="20" fill="#6f4a24" />
    <rect x="44" y="30" width="4" height="20" fill="#6f4a24" />
    <rect x="14" y="38" width="34" height="14" fill="#262626" />
    <rect x="16" y="40" width="30" height="10" fill="#9a6a38" />
    <rect x="24" y="34" width="14" height="6" fill="#262626" />
    <rect x="26" y="34" width="10" height="4" fill="#e8b83a" />
    <g class="micro">
      <rect x="20" y="42" width="6" height="4" fill="#c03434" />
      <rect x="36" y="42" width="6" height="4" fill="#4f9a3c" />
    </g>
    <g class="tiny">
      <rect x="46" y="6" width="2" height="2" fill="#e0a63a" />
      <rect x="54" y="14" width="2" height="2" fill="#e0a63a" />
    </g>
  </g>
</svg>