<svg xmlns="http://www.w3.org/2000/svg" viewBox="0 0 64 64" shape-rendering="crispEdges" data-size="64">
  <title>Производство / рецепт</title>
  <style>
    .micro { }
    .tiny { }
    svg[data-size="32"] .tiny, svg[data-size="24"] .tiny { display:none }
    svg[data-size="24"] .micro { display:none }
</style>
  <g id="tightened_canvas" transform="translate(-2.4615 -1.3846) scale(1.0769)">
    <rect x="6" y="14" width="28" height="34" fill="#262626" />
    <rect x="8" y="16" width="24" height="30" fill="#efe6d4" />
    <rect x="14" y="10" width="12" height="6" fill="#262626" />
    <rect x="16" y="12" width="8" height="4" fill="#c9c2b4" />
    <rect x="12" y="22" width="16" height="4" fill="#6e6e6e" />
    <rect x="12" y="30" width="14" height="4" fill="#6e6e6e" />
    <rect x="34" y="26" width="12" height="10" fill="#262626" />
    <rect x="36" y="28" width="8" height="6" fill="#e8b83a" />
    <rect x="42" y="22" width="6" height="18" fill="#262626" />
    <rect x="46" y="34" width="12" height="18" fill="#262626" />
    <rect x="48" y="36" width="8" height="14" fill="#9a6a38" />
    <rect x="50" y="38" width="4" height="8" fill="#e8b83a" />
    <g class="micro">
      <rect x="12" y="38" width="16" height="2" fill="#6e6e6e" />
      <rect x="38" y="30" width="4" height="2" fill="#efe6d4" />
    </g>
    <g class="tiny">
      <rect x="10" y="18" width="4" height="4" fill="#e8b83a" />
    </g>
  </g>
</svg>