<svg xmlns="http://www.w3.org/2000/svg" viewBox="0 0 64 64" shape-rendering="crispEdges" data-size="64" role="img" aria-labelledby="untouched-deposits-title untouched-deposits-desc" focusable="false" preserveAspectRatio="xMidYMid meet" color-interpolation="sRGB" data-active="true" data-state="idle" data-motion="on" data-animation-profile="wealth" style="--asset-phase:-.4s">
  <title id="untouched-deposits-title">Нетронутые залежи ×2</title>
  <desc id="untouched-deposits-desc">Сияющая нетронутая жила, двойные шевроны быстрых смен и крупный жетон 2.</desc>
  <style>
    .micro{} .tiny{}
    svg[data-size="32"] .tiny,svg[data-size="24"] .tiny{display:none}
    svg[data-size="24"] .micro{display:none}
    svg{--asset-loop:4.8s;--asset-accent-loop:3.2s;--asset-step:1px;overflow:hidden}
    .asset-stage,.asset-fx,.asset-fx *{transform-box:fill-box;transform-origin:center}
    .asset-fx,.asset-fx *{pointer-events:none}
    svg[data-motion="on"][data-active="true"] .profile-bob{animation:asset-enter .32s steps(4,end) both,asset-bob var(--asset-loop) steps(1,end) var(--asset-phase) infinite}
    svg[data-motion="on"][data-active="true"] .profile-grounded{animation:asset-enter .32s steps(4,end) both,asset-grounded var(--asset-loop) steps(1,end) var(--asset-phase) infinite}
    svg[data-motion="on"][data-active="true"] .profile-nudge{animation:asset-enter .32s steps(4,end) both,asset-nudge var(--asset-loop) steps(1,end) var(--asset-phase) infinite}
    @keyframes asset-enter{0%{opacity:0;transform:translateY(2px)}66%{opacity:1;transform:translateY(-1px)}100%{opacity:1;transform:translateY(0)}}
    @keyframes asset-bob{0%,70%,100%{transform:translateY(0)}76%,84%{transform:translateY(-1px)}88%{transform:translateY(0)}}
    @keyframes asset-grounded{0%,78%,100%{opacity:1}82%{opacity:.96}86%{opacity:1}}
    @keyframes asset-nudge{0%,70%,100%{transform:translate(0,0)}76%,84%{transform:translate(1px,1px)}88%{transform:translate(0,0)}}
    svg[data-motion="on"][data-active="true"] .asset-accent{animation:asset-accent var(--asset-accent-loop) steps(1,end) infinite}
    @keyframes asset-accent{0%,42%,58%,100%{opacity:1}46%{opacity:.68}50%{opacity:1}54%{opacity:.84}}
    svg[data-motion="on"][data-active="true"] .fx-glint{animation:fx-glint 3s steps(1,end) infinite}
    svg[data-motion="on"][data-active="true"] .fx-flow{animation:fx-flow 2.4s steps(1,end) infinite}
    @keyframes fx-glint{0%,55%,100%{opacity:0}60%,70%{opacity:1}75%{opacity:0}}
    @keyframes fx-flow{0%,35%{opacity:0;transform:translateX(-2px)}42%,62%{opacity:1}70%,100%{opacity:0;transform:translateX(2px)}}
    .fx-selection,.fx-attention{display:none}
    svg[data-state="selected"] .fx-selection{display:inline;animation:selected 1.2s steps(1,end) infinite}
    svg[data-state="attention"] .fx-attention{display:inline;animation:attention 1s steps(1,end) infinite}
    @keyframes selected{0%,100%{opacity:1}50%{opacity:.55}}
    @keyframes attention{0%,32%,100%{opacity:0}36%,68%{opacity:1}72%{opacity:0}}
    svg[data-state="pressed"] .asset-stage{animation:none!important;transform:translateY(1px)}
    svg[data-state="disabled"] .asset-stage,svg[data-state="disabled"] .asset-fx{animation:none!important;filter:saturate(.25);opacity:.58}
    svg[data-state="hidden"] .asset-stage,svg[data-state="hidden"] .asset-fx{visibility:hidden}
    svg[data-motion="slow"]{--asset-loop:6.8s;--asset-accent-loop:5.2s}
    svg[data-motion="fast"]{--asset-loop:3.1s;--asset-accent-loop:2.2s}
    svg[data-motion="paused"] *{animation-play-state:paused!important}
    svg[data-motion="off"] *{animation:none!important}
    @media (prefers-reduced-motion:reduce){.asset-stage,.asset-fx *,.asset-accent{animation:none!important;transform:none!important}}
  </style>
  <g class="asset-stage profile-nudge"><rect x="4" y="7" width="11" height="4" fill="#315b8a"/><rect x="12" y="11" width="4" height="4" fill="#315b8a"/><rect x="4" y="15" width="11" height="4" fill="#315b8a"/><rect x="19" y="7" width="11" height="4" fill="#4a7ab5"/><rect x="27" y="11" width="4" height="4" fill="#4a7ab5"/><rect x="19" y="15" width="11" height="4" fill="#4a7ab5"/><rect x="44" y="3" width="12" height="4" fill="#262626"/><rect x="40" y="7" width="20" height="18" fill="#262626"/><rect x="44" y="25" width="12" height="4" fill="#262626"/><rect x="44" y="7" width="12" height="18" fill="#4a7ab5"/><rect x="46" y="9" width="8" height="3" fill="#efe6d4"/><rect x="51" y="12" width="3" height="4" fill="#efe6d4"/><rect x="46" y="16" width="8" height="3" fill="#efe6d4"/><rect x="46" y="19" width="3" height="3" fill="#efe6d4"/><rect x="46" y="22" width="8" height="3" fill="#efe6d4"/><rect x="5" y="39" width="54" height="16" fill="#262626"/><rect x="9" y="34" width="16" height="5" fill="#4e5655"/><rect x="21" y="28" width="20" height="11" fill="#6e7472"/><rect x="38" y="33" width="16" height="6" fill="#4e5655"/><rect x="11" y="42" width="14" height="8" fill="#6e7472"/><rect x="27" y="38" width="14" height="12" fill="#4e5655"/><rect x="43" y="41" width="12" height="9" fill="#6e7472"/><rect x="15" y="37" width="10" height="10" fill="#d79622"/><rect x="24" y="31" width="12" height="12" fill="#e8b83a"/><rect x="35" y="41" width="11" height="9" fill="#d79622"/><rect x="46" y="36" width="9" height="10" fill="#e8b83a" class="asset-accent"/><rect x="28" y="24" width="4" height="8" fill="#fff5d6"/><rect x="24" y="26" width="12" height="4" fill="#e8b83a"/></g>
  <g class="asset-fx" aria-hidden="true"><rect x="28" y="22" width="4" height="4" fill="#fff5d6" class="fx-glint"/><rect x="24" y="26" width="12" height="4" fill="#e8b83a" class="fx-glint"/></g>
  <g class="asset-fx fx-selection" aria-hidden="true">
    <rect x="4" y="4" width="12" height="4" fill="#e8b83a"/><rect x="4" y="4" width="4" height="12" fill="#e8b83a"/><rect x="48" y="4" width="12" height="4" fill="#e8b83a"/><rect x="56" y="4" width="4" height="12" fill="#e8b83a"/>
    <rect x="4" y="56" width="12" height="4" fill="#e8b83a"/><rect x="4" y="48" width="4" height="12" fill="#e8b83a"/><rect x="48" y="56" width="12" height="4" fill="#e8b83a"/><rect x="56" y="48" width="4" height="12" fill="#e8b83a"/>
  </g>
  <g class="asset-fx fx-attention" aria-hidden="true"><rect x="48" y="6" width="4" height="10" fill="#c03434"/><rect x="44" y="2" width="12" height="4" fill="#e8b83a"/><rect x="48" y="18" width="4" height="4" fill="#efe6d4"/></g>
</svg>
