<svg xmlns="http://www.w3.org/2000/svg" viewBox="0 0 64 64" shape-rendering="crispEdges" data-size="64">
  <title>Декор</title>
  <style>
    .micro { }
    .tiny { }
    svg[data-size="32"] .tiny, svg[data-size="24"] .tiny { display:none }
    svg[data-size="24"] .micro { display:none }
</style>
  <g id="tightened_canvas" transform="translate(-8.1739 -10.6087) scale(1.2174)">
    <rect x="10" y="18" width="28" height="32" fill="#262626" />
    <rect x="12" y="20" width="24" height="16" fill="#9a6a38" />
    <rect x="14" y="22" width="4" height="12" fill="#6f4a24" />
    <rect x="22" y="22" width="4" height="12" fill="#6f4a24" />
    <rect x="30" y="22" width="4" height="12" fill="#6f4a24" />
    <rect x="12" y="36" width="28" height="8" fill="#262626" />
    <rect x="14" y="38" width="24" height="4" fill="#b07c42" />
    <rect x="14" y="44" width="4" height="8" fill="#6f4a24" />
    <rect x="34" y="44" width="4" height="8" fill="#6f4a24" />
    <rect x="40" y="34" width="16" height="18" fill="#262626" />
    <rect x="42" y="36" width="12" height="14" fill="#8f8f8f" />
    <rect x="46" y="24" width="4" height="12" fill="#4f9a3c" />
    <rect x="40" y="26" width="8" height="6" fill="#4f9a3c" />
    <rect x="48" y="22" width="8" height="8" fill="#4f9a3c" />
    <rect x="44" y="20" width="6" height="6" fill="#e8b83a" />
    <g class="micro">
      <rect x="50" y="38" width="2" height="8" fill="#4a7ab5" />
    </g>
    <g class="tiny">
      <rect x="38" y="18" width="4" height="4" fill="#c03434" />
    </g>
  </g>
</svg>