<svg xmlns="http://www.w3.org/2000/svg" viewBox="0 0 64 64" shape-rendering="crispEdges" data-size="64">
  <title>Экспедиции</title>
  <style>
    .micro { }
    .tiny { }
    svg[data-size="32"] .tiny, svg[data-size="24"] .tiny { display:none }
    svg[data-size="24"] .micro { display:none }
        </style>
  <g id="tightened_canvas" transform="translate(-12.0000 -10.6667) scale(1.3333)">
    <rect x="12" y="14" width="28" height="32" fill="#262626" />
    <rect x="14" y="16" width="24" height="28" fill="#9a6a38" />
    <rect x="20" y="12" width="12" height="4" fill="#b07c42" />
    <rect x="18" y="24" width="16" height="10" fill="#c03434" />
    <rect x="16" y="34" width="4" height="8" fill="#6f4a24" />
    <rect x="32" y="34" width="4" height="8" fill="#6f4a24" />
    <rect x="32" y="34" width="22" height="18" fill="#262626" />
    <rect x="34" y="36" width="18" height="14" fill="#efe6d4" />
    <rect x="38" y="40" width="4" height="4" fill="#4f9a3c" />
    <rect x="44" y="38" width="2" height="2" fill="#c03434" />
    <rect x="38" y="12" width="16" height="16" fill="#262626" />
    <rect x="40" y="14" width="12" height="12" fill="#4a7ab5" />
    <rect x="44" y="16" width="2" height="8" fill="#efe6d4" />
    <rect x="42" y="18" width="6" height="2" fill="#efe6d4" />
    <g class="tiny">
      <rect x="22" y="36" width="8" height="4" fill="#e8b83a" />
    </g>
    <g class="micro">
      <rect x="40" y="42" width="6" height="2" fill="#6f4a24" />
      <rect x="46" y="42" width="2" height="4" fill="#6f4a24" />
    </g>
  </g>
</svg>