<svg xmlns="http://www.w3.org/2000/svg" viewBox="0 0 64 64" shape-rendering="crispEdges" data-size="64">
  <title>Ярмарка</title>
  <style>
    .micro { }
    .tiny { }
    svg[data-size="32"] .tiny, svg[data-size="24"] .tiny { display:none }
    svg[data-size="24"] .micro { display:none }
</style>
  <g id="tightened_canvas" transform="translate(-5.3333 -5.3333) scale(1.1667)">
    <rect x="10" y="20" width="40" height="10" fill="#262626" />
    <rect x="12" y="22" width="10" height="6" fill="#c03434" />
    <rect x="22" y="22" width="8" height="6" fill="#efe6d4" />
    <rect x="30" y="22" width="8" height="6" fill="#4f9a3c" />
    <rect x="38" y="22" width="10" height="6" fill="#e8b83a" />
    <rect x="14" y="30" width="4" height="20" fill="#6f4a24" />
    <rect x="42" y="30" width="4" height="20" fill="#6f4a24" />
    <rect x="14" y="38" width="32" height="14" fill="#262626" />
    <rect x="16" y="40" width="28" height="10" fill="#9a6a38" />
    <rect x="20" y="42" width="8" height="6" fill="#4f9a3c" />
    <rect x="32" y="42" width="8" height="6" fill="#e8b83a" />
    <rect x="46" y="12" width="10" height="14" fill="#262626" />
    <rect x="48" y="14" width="6" height="10" fill="#4a7ab5" />
    <g class="micro">
      <rect x="50" y="16" width="2" height="6" fill="#efe6d4" />
      <rect x="18" y="34" width="24" height="2" fill="#b07c42" />
    </g>
    <g class="tiny">
      <rect x="8" y="16" width="6" height="4" fill="#e0a63a" />
    </g>
  </g>
</svg>