<svg xmlns="http://www.w3.org/2000/svg" viewBox="0 0 64 64" shape-rendering="crispEdges" data-size="64">
  <title>Заказы</title>
  <style>
    .micro { }
    .tiny { }
    svg[data-size="32"] .tiny, svg[data-size="24"] .tiny { display:none }
    svg[data-size="24"] .micro { display:none }
        </style>
  <g id="tightened_canvas" transform="translate(-2.4615 -2.4615) scale(1.0769)">
    <rect x="12" y="14" width="4" height="36" fill="#6f4a24" />
    <rect x="48" y="14" width="4" height="36" fill="#6f4a24" />
    <rect x="12" y="6" width="40" height="32" fill="#262626" />
    <rect x="14" y="8" width="36" height="28" fill="#9a6a38" />
    <rect x="18" y="12" width="28" height="20" fill="#262626" />
    <rect x="20" y="14" width="24" height="16" fill="#efe6d4" />
    <rect x="8" y="42" width="14" height="12" fill="#262626" />
    <rect x="10" y="44" width="10" height="8" fill="#8f8f8f" />
    <rect x="22" y="42" width="18" height="10" fill="#262626" />
    <rect x="24" y="44" width="14" height="6" fill="#9a6a38" />
    <rect x="42" y="40" width="14" height="14" fill="#262626" />
    <rect x="44" y="42" width="10" height="10" fill="#e8b83a" />
    <g class="micro">
      <rect x="22" y="18" width="16" height="2" fill="#6e6e6e" />
      <rect x="22" y="22" width="14" height="2" fill="#6e6e6e" />
      <rect x="22" y="26" width="18" height="2" fill="#6e6e6e" />
      <rect x="12" y="46" width="2" height="2" fill="#6e6e6e" />
      <rect x="16" y="46" width="2" height="2" fill="#6e6e6e" />
      <rect x="26" y="46" width="2" height="2" fill="#b07c42" />
      <rect x="32" y="46" width="2" height="2" fill="#b07c42" />
      <rect x="48" y="46" width="2" height="2" fill="#e0a63a" />
    </g>
    <g class="tiny">
      <rect x="38" y="14" width="4" height="4" fill="#c03434" />
      <rect x="42" y="54" width="12" height="4" fill="#4a7ab5" />
    </g>
  </g>
</svg>