<svg xmlns="http://www.w3.org/2000/svg" viewBox="0 0 64 64" shape-rendering="crispEdges" data-size="64">
  <title>Толока</title>
  <style>
    .micro { }
    .tiny { }
    svg[data-size="32"] .tiny, svg[data-size="24"] .tiny { display:none }
    svg[data-size="24"] .micro { display:none }
        </style>
  <g id="tightened_canvas" transform="translate(-5.3333 -6.5000) scale(1.1667)">
    <rect x="8" y="42" width="48" height="8" fill="#4a7ab5" />
    <rect x="14" y="28" width="4" height="14" fill="#6f4a24" />
    <rect x="46" y="28" width="4" height="14" fill="#6f4a24" />
    <rect x="16" y="26" width="32" height="10" fill="#262626" />
    <rect x="18" y="28" width="28" height="6" fill="#9a6a38" />
    <rect x="14" y="10" width="12" height="14" fill="#262626" />
    <rect x="16" y="12" width="8" height="10" fill="#8f8f8f" />
    <rect x="24" y="10" width="12" height="14" fill="#262626" />
    <rect x="26" y="12" width="8" height="10" fill="#8f8f8f" />
    <rect x="34" y="10" width="12" height="14" fill="#262626" />
    <rect x="36" y="12" width="8" height="10" fill="#8f8f8f" />
    <rect x="16" y="52" width="32" height="4" fill="#262626" />
    <rect x="18" y="54" width="20" height="2" fill="#4f9a3c" />
    <g class="micro">
      <rect x="12" y="44" width="8" height="2" fill="#efe6d4" />
      <rect x="30" y="46" width="8" height="2" fill="#efe6d4" />
      <rect x="18" y="14" width="4" height="4" fill="#b07c42" />
      <rect x="28" y="14" width="4" height="4" fill="#b07c42" />
      <rect x="38" y="14" width="4" height="4" fill="#b07c42" />
    </g>
    <g class="tiny">
      <rect x="22" y="26" width="4" height="2" fill="#c9c2b4" />
      <rect x="30" y="26" width="4" height="2" fill="#c9c2b4" />
      <rect x="38" y="26" width="4" height="2" fill="#c9c2b4" />
    </g>
  </g>
</svg>