<svg xmlns="http://www.w3.org/2000/svg" viewBox="0 0 64 64" shape-rendering="crispEdges" data-size="64">
  <title>Погода</title>
  <style>
    .micro { }
    .tiny { }
    svg[data-size="32"] .tiny, svg[data-size="24"] .tiny { display:none }
    svg[data-size="24"] .micro { display:none }
        </style>
  <g id="tightened_canvas" transform="translate(-2.7200 -2.7200) scale(1.1200)">
    <rect x="10" y="10" width="18" height="18" fill="#262626" />
    <rect x="12" y="12" width="14" height="14" fill="#e8b83a" />
    <rect x="26" y="20" width="26" height="16" fill="#262626" />
    <rect x="28" y="22" width="22" height="12" fill="#efe6d4" />
    <rect x="22" y="24" width="34" height="14" fill="#262626" />
    <rect x="24" y="26" width="30" height="10" fill="#efe6d4" />
    <rect x="8" y="42" width="14" height="14" fill="#262626" />
    <rect x="10" y="44" width="10" height="10" fill="#efe6d4" />
    <rect x="22" y="42" width="14" height="14" fill="#262626" />
    <rect x="24" y="44" width="10" height="10" fill="#efe6d4" />
    <rect x="36" y="42" width="14" height="14" fill="#262626" />
    <rect x="38" y="44" width="10" height="10" fill="#efe6d4" />
    <rect x="14" y="48" width="4" height="4" fill="#e8b83a" />
    <rect x="42" y="48" width="4" height="4" fill="#e8b83a" />
    <g class="tiny">
      <rect x="16" y="6" width="2" height="2" fill="#e0a63a" />
      <rect x="16" y="28" width="2" height="2" fill="#e0a63a" />
      <rect x="6" y="16" width="2" height="2" fill="#e0a63a" />
      <rect x="28" y="16" width="2" height="2" fill="#e0a63a" />
      <rect x="8" y="8" width="2" height="2" fill="#e0a63a" />
      <rect x="26" y="8" width="2" height="2" fill="#e0a63a" />
      <rect x="8" y="26" width="2" height="2" fill="#e0a63a" />
      <rect x="26" y="26" width="2" height="2" fill="#e0a63a" />
    </g>
    <g class="micro">
      <rect x="16" y="46" width="2" height="2" fill="#e0a63a" />
      <rect x="28" y="46" width="4" height="6" fill="#5d9991" />
      <rect x="26" y="52" width="8" height="2" fill="#6f4a24" />
      <rect x="44" y="46" width="2" height="2" fill="#e0a63a" />
    </g>
  </g>
</svg>