<svg xmlns="http://www.w3.org/2000/svg" viewBox="0 0 64 64" shape-rendering="crispEdges" data-size="64" role="img" aria-labelledby="cloak-title cloak-desc" focusable="false" preserveAspectRatio="xMidYMid meet" color-interpolation="sRGB" data-active="true" data-state="idle" data-motion="on" data-animation-profile="material" style="--asset-phase:-1.73s">
  <title id="cloak-title">Плащ</title>
  <desc id="cloak-desc">Тёплый шерстяной плащ с капюшоном на деревянном колышке. Поддерживаются состояния idle, selected, attention, pressed, disabled и режимы motion on, slow, fast, paused, off.</desc>
  <style>.micro{}.tiny{}svg[data-size="32"] .tiny,svg[data-size="24"] .tiny{display:none}svg[data-size="24"] .micro{display:none}.scene{transform-box:fill-box;transform-origin:center}svg[data-state="pressed"] .scene{transform:translateY(1px)}svg[data-state="disabled"] .scene{filter:saturate(.25);opacity:.58}svg[data-state="hidden"] .scene{visibility:hidden}@media (prefers-reduced-motion:reduce){.scene{transform:none!important}}</style>
  <g class="scene asset-stage">
    <rect x="10" y="52" width="44" height="4" fill="#262626"/>
    <rect x="18" y="12" width="4" height="40" fill="#262626"/><rect x="20" y="10" width="12" height="4" fill="#262626"/><rect x="22" y="14" width="4" height="38" fill="#7a4b29"/><rect x="20" y="12" width="12" height="4" fill="#b97a47"/>
    <rect x="24" y="16" width="20" height="8" fill="#262626"/><rect x="20" y="24" width="28" height="12" fill="#262626"/><rect x="16" y="36" width="36" height="16" fill="#262626"/>
    <rect x="28" y="18" width="12" height="6" fill="#bf8a51"/><rect x="24" y="24" width="20" height="10" fill="#bf8a51"/><rect x="20" y="36" width="28" height="14" fill="#bf8a51"/>
    <rect x="32" y="20" width="8" height="4" fill="#5c3525"/><rect x="28" y="24" width="8" height="6" fill="#5c3525"/><rect x="24" y="36" width="8" height="12" fill="#8e5b38"/>
    <rect x="40" y="30" width="4" height="16" fill="#e0b66d"/><rect x="20" y="48" width="28" height="2" fill="#5c3525"/>
    <g class="micro"><rect x="36" y="36" width="4" height="10" fill="#d89f5b"/><rect x="28" y="32" width="12" height="2" fill="#e0b66d"/></g>
    <g class="tiny"><rect x="44" y="26" width="4" height="4" fill="#f2d796"/><rect x="16" y="52" width="8" height="2" fill="#7a4b29"/></g>
  </g>
</svg>
