<svg xmlns="http://www.w3.org/2000/svg" width="24" height="24" viewBox="0 0 24 24" shape-rendering="crispEdges">
  <title>Курсор</title>
  <rect x="0" y="0" width="6" height="2" fill="#efe6d4" />
  <rect x="0" y="2" width="8" height="2" fill="#efe6d4" />
  <rect x="0" y="4" width="10" height="2" fill="#efe6d4" />
  <rect x="0" y="6" width="12" height="2" fill="#efe6d4" />
  <rect x="0" y="8" width="14" height="2" fill="#efe6d4" />
  <rect x="0" y="10" width="16" height="2" fill="#efe6d4" />
  <rect x="0" y="12" width="18" height="2" fill="#efe6d4" />
  <rect x="0" y="14" width="18" height="2" fill="#efe6d4" />
  <rect x="0" y="16" width="18" height="2" fill="#efe6d4" />
  <rect x="6" y="18" width="8" height="2" fill="#efe6d4" />
  <rect x="6" y="20" width="8" height="2" fill="#efe6d4" />
  <rect x="2" y="2" width="2" height="2" fill="#262626" />
  <rect x="2" y="4" width="4" height="2" fill="#262626" />
  <rect x="2" y="6" width="6" height="2" fill="#262626" />
  <rect x="2" y="8" width="8" height="2" fill="#262626" />
  <rect x="2" y="10" width="10" height="2" fill="#262626" />
  <rect x="2" y="12" width="12" height="2" fill="#262626" />
  <rect x="2" y="14" width="14" height="2" fill="#262626" />
  <rect x="8" y="16" width="4" height="2" fill="#262626" />
  <rect x="8" y="18" width="4" height="2" fill="#262626" />
  <rect x="4" y="8" width="2" height="2" fill="#fff0a3" />
  <rect x="4" y="10" width="4" height="2" fill="#e8b83a" />
  <rect x="4" y="12" width="6" height="2" fill="#e8b83a" />
</svg>
