<svg xmlns="http://www.w3.org/2000/svg" viewBox="0 0 128 128" shape-rendering="crispEdges" data-level="1" data-size="128">
  <title>Пекарня</title>
  <style>svg[data-level="1"] .lvl2,svg[data-level="1"] .lvl3,svg[data-level="1"] .lvl4,svg[data-level="1"] .lvl5,svg[data-level="2"] .lvl3,svg[data-level="2"] .lvl4,svg[data-level="2"] .lvl5,svg[data-level="3"] .lvl4,svg[data-level="3"] .lvl5,svg[data-level="4"] .lvl5{display:none}</style>
  <rect x="4" y="104" width="120" height="4" fill="#4b5156"/><rect x="0" y="108" width="128" height="16" fill="#92999e"/>
  <rect x="16" y="48" width="72" height="56" fill="#24282d"/><rect x="20" y="52" width="64" height="52" fill="#986638"/><path d="M8 52h88L52 20z" fill="#704925"/><path d="M16 48h72L52 28z" fill="#cf3c3c"/>
  <rect x="44" y="72" width="28" height="32" fill="#24282d"/><path d="M48 96V84c0-12 20-12 20 0v12z" fill="#e7ad35"/><path d="M52 84l12 8m0-8l-12 8" stroke="#b98246" stroke-width="3"/>
  <rect x="88" y="40" width="16" height="64" fill="#24282d"/><rect x="92" y="44" width="8" height="56" fill="#5d9991"/><rect x="92" y="20" width="8" height="20" fill="#24282d"/>
  <g class="lvl2"><rect x="8" y="84" width="28" height="20" fill="#24282d"/><rect x="12" y="88" width="20" height="12" fill="#b98246"/></g>
  <g class="lvl3"><rect x="104" y="76" width="16" height="28" fill="#24282d"/><rect x="108" y="80" width="8" height="20" fill="#986638"/></g>
  <g class="lvl4"><rect x="24" y="56" width="16" height="12" fill="#4e83bd"/><rect x="44" y="56" width="16" height="12" fill="#4e83bd"/></g>
  <g class="lvl5"><rect x="8" y="48" width="88" height="4" fill="#e8b83a"/><path d="M92 16l8-8 8 8" fill="#c9c2b4"/></g>
</svg>
