<svg xmlns="http://www.w3.org/2000/svg" viewBox="0 0 128 128" shape-rendering="crispEdges" data-level="1" data-resolution="128" data-size="128" data-working="false" data-motion="on" data-refined="true" data-visual-rounds="11">
  <title>Ярмарка</title>
  <desc>Доработанный пиксельный SVG «Ярмарка»: варианты 128/64/32, уровни 1–5 и опциональное рабочее состояние data-working.</desc>
  <style>
    svg[data-level="1"] .lvl2, svg[data-level="1"] .lvl3, svg[data-level="1"] .lvl4, svg[data-level="1"] .lvl5,
    svg[data-level="2"] .lvl3, svg[data-level="2"] .lvl4, svg[data-level="2"] .lvl5,
    svg[data-level="3"] .lvl4, svg[data-level="3"] .lvl5,
    svg[data-level="4"] .lvl5 { display: none }
  
    .variant-medium, .variant-small { display: none; }
    svg[data-size="64"] .variant-full, svg[data-size="medium"] .variant-full,
    svg[data-size="32"] .variant-full, svg[data-size="small"] .variant-full { display: none; }
    svg[data-size="64"] .variant-medium, svg[data-size="medium"] .variant-medium { display: inline; }
    svg[data-size="32"] .variant-small, svg[data-size="small"] .variant-small { display: inline; }

    /* Activity state: works only for inline SVG/SVGR. */
    .work-state { display: none; }
    svg[data-working="true"] .work-state,
    svg[data-working="1"] .work-state { display: inline; }

    .work-animated {
      transform-box: fill-box;
      transform-origin: center;
      will-change: transform, opacity;
    }
    .work-bob-y { animation: domiki-work-bob-y var(--domiki-work-speed, 1s) steps(2, end) infinite; }
    .work-bob-y-alt { animation: domiki-work-bob-y-alt var(--domiki-work-speed, 1s) steps(2, end) infinite; }
    .work-bob-x { animation: domiki-work-bob-x var(--domiki-work-speed, 1s) steps(2, end) infinite; }
    .work-slide-x { animation: domiki-work-slide-x var(--domiki-work-speed, 1s) steps(3, end) infinite; }
    .work-blink { animation: domiki-work-blink var(--domiki-work-speed, 1s) steps(2, end) infinite; }
    .work-blink-alt { animation: domiki-work-blink-alt var(--domiki-work-speed, 1s) steps(2, end) infinite; }
    .work-flicker { animation: domiki-work-flicker var(--domiki-work-speed, 1s) steps(2, end) infinite; }

    svg[data-motion="paused"] .work-animated { animation-play-state: paused !important; }
    svg[data-motion="off"] .work-animated { animation: none !important; }

    @keyframes domiki-work-bob-y {
      0%, 49% { transform: translate(0, 0); }
      50%, 100% { transform: translate(0, -4px); }
    }
    @keyframes domiki-work-bob-y-alt {
      0%, 49% { transform: translate(0, -4px); }
      50%, 100% { transform: translate(0, 0); }
    }
    @keyframes domiki-work-bob-x {
      0%, 49% { transform: translate(0, 0); }
      50%, 100% { transform: translate(4px, 0); }
    }
    @keyframes domiki-work-slide-x {
      0%, 32% { transform: translate(0, 0); }
      33%, 65% { transform: translate(4px, 0); }
      66%, 100% { transform: translate(8px, 0); }
    }
    @keyframes domiki-work-blink {
      0%, 49% { opacity: 1; }
      50%, 100% { opacity: .25; }
    }
    @keyframes domiki-work-blink-alt {
      0%, 49% { opacity: .25; }
      50%, 100% { opacity: 1; }
    }
    @keyframes domiki-work-flicker {
      0%, 49% { transform: translate(0, 0); opacity: 1; }
      50%, 100% { transform: translate(0, -4px); opacity: .8; }
    }

    @media (prefers-reduced-motion: reduce) {
      .work-animated { animation: none !important; }
    }
</style>
  <g class="variant-full"><rect x="0" y="108" width="128" height="4" fill="#5d6469"/>
  <rect x="0" y="112" width="128" height="12" fill="#92999e"/>
  <rect x="20" y="116" width="4" height="4" fill="#737b80"/>
  <rect x="68" y="116" width="4" height="4" fill="#737b80"/>
  <rect x="104" y="116" width="4" height="4" fill="#737b80"/>
  <g data-refinement-round="2"><rect x="8" y="104" width="112" height="4" fill="#4b5156"/></g><rect x="20" y="52" width="8" height="56" fill="#704925"/>
  <rect x="100" y="52" width="8" height="56" fill="#704925"/>
  <rect x="12" y="72" width="104" height="36" fill="#24282d"/>
  <rect x="16" y="76" width="96" height="8" fill="#b98246"/>
  <rect x="20" y="80" width="12" height="2" fill="#986638"/>
  <rect x="16" y="84" width="96" height="20" fill="#986638"/>
  <rect x="40" y="88" width="4" height="16" fill="#704925"/>
  <rect x="64" y="88" width="4" height="16" fill="#704925"/>
  <rect x="88" y="88" width="4" height="16" fill="#704925"/>
  <rect x="24" y="60" width="24" height="16" fill="#24282d"/>
  <rect x="28" y="64" width="16" height="8" fill="#b98246"/>
  <rect x="56" y="64" width="12" height="12" fill="#4d9e43"/>
  <rect x="76" y="68" width="8" height="8" fill="#d94747"/>
  <rect x="88" y="60" width="12" height="16" fill="#e7ad35"/>
  <rect x="92" y="60" width="4" height="4" fill="#704925"/>
  <rect x="8" y="24" width="112" height="28" fill="#24282d"/>
  <rect x="12" y="28" width="8" height="20" fill="#c84444"/>
  <rect x="20" y="28" width="8" height="20" fill="#f0e6d0"/>
  <rect x="28" y="28" width="8" height="20" fill="#c84444"/>
  <rect x="36" y="28" width="8" height="20" fill="#f0e6d0"/>
  <rect x="44" y="28" width="8" height="20" fill="#c84444"/>
  <rect x="52" y="28" width="8" height="20" fill="#f0e6d0"/>
  <rect x="60" y="28" width="8" height="20" fill="#c84444"/>
  <rect x="68" y="28" width="8" height="20" fill="#f0e6d0"/>
  <rect x="76" y="28" width="8" height="20" fill="#c84444"/>
  <rect x="84" y="28" width="8" height="20" fill="#f0e6d0"/>
  <rect x="92" y="28" width="8" height="20" fill="#c84444"/>
  <rect x="100" y="28" width="8" height="20" fill="#f0e6d0"/>
  <rect x="108" y="28" width="8" height="20" fill="#c84444"/>
  <rect x="16" y="52" width="8" height="4" fill="#24282d"/>
  <rect x="40" y="52" width="8" height="4" fill="#24282d"/>
  <rect x="64" y="52" width="8" height="4" fill="#24282d"/>
  <rect x="88" y="52" width="8" height="4" fill="#24282d"/>
  <rect x="112" y="52" width="8" height="4" fill="#24282d"/>
  <g class="lvl2">
    <rect x="48" y="56" width="28" height="4" fill="#5d6469"/>
    <rect x="60" y="60" width="4" height="16" fill="#704925"/>
    <rect x="48" y="60" width="8" height="4" fill="#5d6469"/>
    <rect x="68" y="60" width="8" height="4" fill="#5d6469"/>
    </g>
  <g class="lvl3">
    <rect x="24" y="52" width="4" height="4" fill="#e7ad35"/>
    <rect x="32" y="52" width="4" height="4" fill="#e7ad35"/>
    <rect x="28" y="56" width="4" height="4" fill="#e7ad35"/>
    <rect x="48" y="52" width="4" height="4" fill="#e7ad35"/>
    <rect x="56" y="52" width="4" height="4" fill="#e7ad35"/>
    <rect x="52" y="56" width="4" height="4" fill="#e7ad35"/>
    <rect x="72" y="52" width="4" height="4" fill="#e7ad35"/>
    <rect x="80" y="52" width="4" height="4" fill="#e7ad35"/>
    <rect x="76" y="56" width="4" height="4" fill="#e7ad35"/>
    <rect x="96" y="52" width="4" height="4" fill="#e7ad35"/>
    <rect x="104" y="52" width="4" height="4" fill="#e7ad35"/>
    <rect x="100" y="56" width="4" height="4" fill="#e7ad35"/>
    </g>
  <g class="lvl4">
    <rect x="36" y="96" width="32" height="12" fill="#24282d"/>
    <rect x="40" y="100" width="20" height="8" fill="#c84444"/>
    <rect x="60" y="100" width="4" height="8" fill="#f0e6d0"/>
    <rect x="40" y="84" width="32" height="16" fill="#24282d"/>
    <rect x="44" y="88" width="20" height="8" fill="#4d9e43"/>
    <rect x="64" y="88" width="4" height="8" fill="#f0e6d0"/>
    </g>
  <g class="lvl5">
    <rect x="12" y="48" width="104" height="4" fill="#e8b83a"/>
    <rect x="80" y="52" width="24" height="24" fill="#24282d"/>
    <rect x="92" y="52" width="4" height="4" fill="#e8b83a"/>
    <rect x="88" y="56" width="12" height="16" fill="#e8b83a"/>
    <rect x="84" y="64" width="4" height="4" fill="#e8b83a"/>
    <rect x="88" y="68" width="12" height="4" fill="#e7ad35"/>
    </g>
<g data-refinement-round="3"><rect x="16" y="76" width="96" height="4" fill="#c99456"/><rect x="20" y="52" width="88" height="4" fill="#80532a"/></g><g data-refinement-round="4"><rect x="28" y="64" width="8" height="4" fill="#d6a669"/><rect x="56" y="64" width="4" height="4" fill="#7bc768"/><rect x="88" y="60" width="4" height="4" fill="#ffd260"/></g><g data-refinement-round="7"><rect x="20" y="48" width="8" height="8" fill="#c84444"/><rect x="36" y="48" width="8" height="8" fill="#f0e6d0"/><rect x="52" y="48" width="8" height="8" fill="#c84444"/><rect x="68" y="48" width="8" height="8" fill="#f0e6d0"/><rect x="84" y="48" width="8" height="8" fill="#c84444"/><rect x="100" y="48" width="8" height="8" fill="#f0e6d0"/><rect x="24" y="92" width="8" height="8" fill="#d95c3f"/><rect x="44" y="92" width="8" height="8" fill="#6fbb57"/><rect x="72" y="92" width="8" height="8" fill="#e7ad35"/><rect x="96" y="92" width="8" height="8" fill="#4e83bd"/></g><g data-refinement-round="11"><rect x="108" y="56" width="4" height="12" fill="#e7ad35"/></g><g class="work-state"><rect x="60" y="16" width="4" height="16" fill="#704925"/><rect x="48" y="20" width="32" height="4" fill="#c9c2b4"/><rect x="52" y="24" width="4" height="16" fill="#704925"/><rect x="76" y="24" width="4" height="16" fill="#704925"/><g class="work-animated work-bob-y"><rect x="44" y="36" width="16" height="4" fill="#c9c2b4"/><rect x="48" y="40" width="8" height="4" fill="#e8b83a"/></g><g class="work-animated work-bob-y-alt"><rect x="72" y="36" width="16" height="4" fill="#c9c2b4"/><rect x="76" y="40" width="8" height="4" fill="#e8b83a"/></g><g class="work-animated work-blink"><rect x="56" y="56" width="4" height="4" fill="#e8b83a"/><rect x="68" y="60" width="4" height="4" fill="#e8b83a"/></g><g class="work-animated work-blink-alt"><rect x="64" y="52" width="4" height="4" fill="#e8b83a"/></g></g></g><g class="variant-medium"><rect x="8" y="108" width="112" height="4" fill="#5d6469"/><rect x="8" y="112" width="112" height="8" fill="#92999e"/><rect x="20" y="116" width="4" height="4" fill="#737b80"/><rect x="100" y="116" width="4" height="4" fill="#737b80"/><rect x="12" y="32" width="104" height="24" fill="#24282d"/><g data-refinement-round="2"><rect x="8" y="104" width="112" height="4" fill="#4b5156"/></g><rect x="16" y="36" width="96" height="16" fill="#f0e6d0"/><rect x="16" y="36" width="12" height="16" fill="#c84444"/><rect x="40" y="36" width="12" height="16" fill="#c84444"/><rect x="64" y="36" width="12" height="16" fill="#c84444"/><rect x="88" y="36" width="12" height="16" fill="#c84444"/><rect x="24" y="64" width="80" height="44" fill="#24282d"/><rect x="28" y="68" width="72" height="36" fill="#986638"/><rect x="32" y="84" width="16" height="20" fill="#704925"/><rect x="56" y="84" width="16" height="20" fill="#704925"/><rect x="80" y="84" width="16" height="20" fill="#704925"/><rect x="36" y="60" width="16" height="8" fill="#e8b83a"/><rect x="60" y="60" width="16" height="8" fill="#4d9e43"/><rect x="84" y="60" width="12" height="8" fill="#dc8b1b"/><g class="lvl2"><rect x="20" y="56" width="12" height="12" fill="#24282d"/><rect x="24" y="60" width="4" height="4" fill="#c84444"/></g><g class="lvl3"><rect x="104" y="60" width="8" height="48" fill="#704925"/><rect x="100" y="56" width="16" height="8" fill="#f0e6d0"/></g><g class="lvl4"><rect x="52" y="56" width="4" height="16" fill="#704925"/><rect x="72" y="56" width="4" height="16" fill="#704925"/><rect x="56" y="56" width="16" height="4" fill="#c9c2b4"/><rect x="52" y="68" width="8" height="4" fill="#c9c2b4"/><rect x="68" y="68" width="8" height="4" fill="#c9c2b4"/></g><g class="lvl5"><rect x="80" y="56" width="20" height="16" fill="#e8b83a"/><rect x="84" y="52" width="12" height="4" fill="#e8b83a"/></g><g data-refinement-round="9"><rect x="36" y="48" width="12" height="8" fill="#c84444"/><rect x="52" y="48" width="12" height="8" fill="#f0e6d0"/><rect x="68" y="48" width="12" height="8" fill="#c84444"/></g><g class="work-state"><rect x="60" y="16" width="4" height="16" fill="#704925"/><rect x="48" y="20" width="32" height="4" fill="#c9c2b4"/><rect x="52" y="24" width="4" height="16" fill="#704925"/><rect x="76" y="24" width="4" height="16" fill="#704925"/><g class="work-animated work-bob-y"><rect x="44" y="36" width="16" height="4" fill="#c9c2b4"/><rect x="48" y="40" width="8" height="4" fill="#e8b83a"/></g><g class="work-animated work-bob-y-alt"><rect x="72" y="36" width="16" height="4" fill="#c9c2b4"/><rect x="76" y="40" width="8" height="4" fill="#e8b83a"/></g><g class="work-animated work-blink"><rect x="56" y="56" width="4" height="4" fill="#e8b83a"/><rect x="68" y="60" width="4" height="4" fill="#e8b83a"/></g><g class="work-animated work-blink-alt"><rect x="64" y="52" width="4" height="4" fill="#e8b83a"/></g></g></g><g class="variant-small"><rect x="8" y="108" width="112" height="4" fill="#5d6469"/><rect x="8" y="112" width="112" height="8" fill="#92999e"/><rect x="20" y="116" width="4" height="4" fill="#737b80"/><rect x="100" y="116" width="4" height="4" fill="#737b80"/><rect x="12" y="32" width="104" height="24" fill="#24282d"/><g data-refinement-round="2"><rect x="8" y="104" width="112" height="4" fill="#4b5156"/></g><rect x="16" y="36" width="96" height="16" fill="#f0e6d0"/><rect x="16" y="36" width="12" height="16" fill="#c84444"/><rect x="40" y="36" width="12" height="16" fill="#c84444"/><rect x="64" y="36" width="12" height="16" fill="#c84444"/><rect x="88" y="36" width="12" height="16" fill="#c84444"/><rect x="24" y="64" width="80" height="44" fill="#24282d"/><rect x="28" y="68" width="72" height="36" fill="#986638"/><rect x="32" y="84" width="16" height="20" fill="#704925"/><rect x="56" y="84" width="16" height="20" fill="#704925"/><rect x="80" y="84" width="16" height="20" fill="#704925"/><rect x="36" y="60" width="16" height="8" fill="#e8b83a"/><rect x="60" y="60" width="16" height="8" fill="#4d9e43"/><rect x="84" y="60" width="12" height="8" fill="#dc8b1b"/><g data-refinement-round="10"><rect x="40" y="48" width="16" height="8" fill="#c84444"/><rect x="56" y="48" width="16" height="8" fill="#f0e6d0"/><rect x="72" y="48" width="16" height="8" fill="#c84444"/></g><g class="work-state"><rect x="60" y="16" width="4" height="16" fill="#704925"/><rect x="48" y="20" width="32" height="4" fill="#c9c2b4"/><rect x="52" y="24" width="4" height="16" fill="#704925"/><rect x="76" y="24" width="4" height="16" fill="#704925"/><g class="work-animated work-bob-y"><rect x="44" y="36" width="16" height="4" fill="#c9c2b4"/><rect x="48" y="40" width="8" height="4" fill="#e8b83a"/></g><g class="work-animated work-bob-y-alt"><rect x="72" y="36" width="16" height="4" fill="#c9c2b4"/><rect x="76" y="40" width="8" height="4" fill="#e8b83a"/></g></g></g></svg>
