<svg xmlns="http://www.w3.org/2000/svg" viewBox="0 0 64 64" shape-rendering="crispEdges" data-level="1">
  <title>Сходня</title>
  <style>
    svg[data-level="1"] .lvl2, svg[data-level="1"] .lvl3, svg[data-level="1"] .lvl4, svg[data-level="1"] .lvl5,
    svg[data-level="2"] .lvl3, svg[data-level="2"] .lvl4, svg[data-level="2"] .lvl5,
    svg[data-level="3"] .lvl4, svg[data-level="3"] .lvl5,
    svg[data-level="4"] .lvl5 { display: none }
  </style>

  <rect x="0" y="54" width="64" height="2" fill="#565656"/>
  <rect x="0" y="56" width="64" height="6" fill="#8f8f8f"/>
  <rect x="6" y="58" width="2" height="2" fill="#6e6e6e"/>
  <rect x="30" y="58" width="2" height="2" fill="#6e6e6e"/>
  <rect x="52" y="58" width="2" height="2" fill="#6e6e6e"/>

  <rect x="6" y="18" width="42" height="6" fill="#262626"/>
  <rect x="12" y="12" width="30" height="6" fill="#262626"/>
  <rect x="18" y="6" width="18" height="6" fill="#262626"/>
  <rect x="24" y="2" width="6" height="4" fill="#262626"/>
  <rect x="8" y="20" width="38" height="4" fill="#9a6a38"/>
  <rect x="14" y="14" width="26" height="4" fill="#9a6a38"/>
  <rect x="20" y="8" width="14" height="4" fill="#9a6a38"/>
  <rect x="26" y="4" width="2" height="2" fill="#b07c42"/>

  <rect x="8" y="24" width="38" height="30" fill="#262626"/>
  <rect x="10" y="26" width="34" height="4" fill="#b07c42"/>
  <rect x="10" y="30" width="34" height="4" fill="#9a6a38"/>
  <rect x="10" y="34" width="34" height="4" fill="#b07c42"/>
  <rect x="10" y="38" width="34" height="4" fill="#9a6a38"/>
  <rect x="10" y="42" width="34" height="4" fill="#b07c42"/>
  <rect x="10" y="46" width="34" height="6" fill="#9a6a38"/>

  <rect x="12" y="30" width="6" height="8" fill="#262626"/>
  <rect x="12" y="30" width="2" height="8" fill="#c03434"/>
  <rect x="16" y="30" width="2" height="8" fill="#c03434"/>
  <rect x="14" y="32" width="2" height="4" fill="#4a7ab5"/>
  <rect x="38" y="30" width="6" height="8" fill="#262626"/>
  <rect x="38" y="30" width="2" height="8" fill="#c03434"/>
  <rect x="42" y="30" width="2" height="8" fill="#c03434"/>
  <rect x="40" y="32" width="2" height="4" fill="#4a7ab5"/>

  <rect x="18" y="34" width="20" height="4" fill="#262626"/>
  <rect x="20" y="36" width="16" height="2" fill="#b07c42"/>
  <rect x="22" y="38" width="12" height="16" fill="#262626"/>
  <rect x="24" y="40" width="8" height="12" fill="#6f4a24"/>
  <rect x="20" y="38" width="2" height="14" fill="#6f4a24"/>
  <rect x="34" y="38" width="2" height="14" fill="#6f4a24"/>

  <rect x="54" y="26" width="2" height="26" fill="#6f4a24"/>
  <rect x="48" y="26" width="8" height="2" fill="#6f4a24"/>
  <rect x="48" y="28" width="8" height="8" fill="#262626"/>
  <rect x="50" y="30" width="4" height="4" fill="#c99e6f"/>
  <rect x="48" y="34" width="8" height="2" fill="#c99e6f"/>

  <g class="lvl2">
    <rect x="4" y="40" width="2" height="12" fill="#6f4a24"/>
    <rect x="8" y="40" width="2" height="12" fill="#6f4a24"/>
    <rect x="2" y="34" width="10" height="8" fill="#262626"/>
    <rect x="4" y="36" width="6" height="4" fill="#b07c42"/>
    <rect x="4" y="36" width="2" height="2" fill="#efe6d4"/>
    <rect x="8" y="36" width="2" height="2" fill="#efe6d4"/>
    <rect x="4" y="38" width="6" height="2" fill="#efe6d4"/>
  </g>

  <g class="lvl3">
    <rect x="4" y="48" width="14" height="2" fill="#9a6a38"/>
    <rect x="4" y="50" width="2" height="4" fill="#6f4a24"/>
    <rect x="16" y="50" width="2" height="4" fill="#6f4a24"/>
    <rect x="46" y="48" width="14" height="2" fill="#9a6a38"/>
    <rect x="46" y="50" width="2" height="4" fill="#6f4a24"/>
    <rect x="58" y="50" width="2" height="4" fill="#6f4a24"/>
  </g>

  <g class="lvl4">
    <rect x="22" y="44" width="16" height="10" fill="#262626"/>
    <rect x="24" y="44" width="12" height="2" fill="#8f8f8f"/>
    <rect x="24" y="46" width="12" height="6" fill="#565656"/>
    <rect x="26" y="52" width="2" height="2" fill="#e0a63a"/>
    <rect x="30" y="52" width="2" height="2" fill="#cf3c3c"/>
    <rect x="34" y="52" width="2" height="2" fill="#e0a63a"/>
    <rect x="36" y="42" width="2" height="8" fill="#6f4a24"/>
    <rect x="36" y="40" width="4" height="2" fill="#565656"/>
  </g>

  <g class="lvl5">
    <rect x="8" y="20" width="38" height="2" fill="#e8b83a"/>
    <rect x="20" y="36" width="16" height="2" fill="#e8b83a"/>
    <rect x="26" y="0" width="2" height="6" fill="#e8b83a"/>
    <rect x="28" y="0" width="4" height="2" fill="#e8b83a"/>
    <rect x="30" y="2" width="2" height="2" fill="#e0a63a"/>
  </g>
</svg>
