<svg xmlns="http://www.w3.org/2000/svg" viewBox="0 0 128 128" shape-rendering="crispEdges" data-level="1" data-resolution="128" data-size="128" data-working="false" data-motion="on" data-refined="true" data-visual-rounds="11">
  <title>Золотой рудник</title>
  <desc>Доработанный пиксельный SVG «Золотой рудник»: варианты 128/64/32, уровни 1–5 и опциональное рабочее состояние data-working.</desc>
  <style>
    svg[data-level="1"] .lvl2, svg[data-level="1"] .lvl3, svg[data-level="1"] .lvl4, svg[data-level="1"] .lvl5,
    svg[data-level="2"] .lvl3, svg[data-level="2"] .lvl4, svg[data-level="2"] .lvl5,
    svg[data-level="3"] .lvl4, svg[data-level="3"] .lvl5,
    svg[data-level="4"] .lvl5 { display: none }
  
    .variant-medium, .variant-small { display: none; }
    svg[data-size="64"] .variant-full, svg[data-size="medium"] .variant-full,
    svg[data-size="32"] .variant-full, svg[data-size="small"] .variant-full { display: none; }
    svg[data-size="64"] .variant-medium, svg[data-size="medium"] .variant-medium { display: inline; }
    svg[data-size="32"] .variant-small, svg[data-size="small"] .variant-small { display: inline; }

    /* Activity state: works only for inline SVG/SVGR. */
    .work-state { display: none; }
    svg[data-working="true"] .work-state,
    svg[data-working="1"] .work-state { display: inline; }

    .work-animated {
      transform-box: fill-box;
      transform-origin: center;
      will-change: transform, opacity;
    }
    .work-bob-y { animation: domiki-work-bob-y var(--domiki-work-speed, 1s) steps(2, end) infinite; }
    .work-bob-y-alt { animation: domiki-work-bob-y-alt var(--domiki-work-speed, 1s) steps(2, end) infinite; }
    .work-bob-x { animation: domiki-work-bob-x var(--domiki-work-speed, 1s) steps(2, end) infinite; }
    .work-slide-x { animation: domiki-work-slide-x var(--domiki-work-speed, 1s) steps(3, end) infinite; }
    .work-blink { animation: domiki-work-blink var(--domiki-work-speed, 1s) steps(2, end) infinite; }
    .work-blink-alt { animation: domiki-work-blink-alt var(--domiki-work-speed, 1s) steps(2, end) infinite; }
    .work-flicker { animation: domiki-work-flicker var(--domiki-work-speed, 1s) steps(2, end) infinite; }

    svg[data-motion="paused"] .work-animated { animation-play-state: paused !important; }
    svg[data-motion="off"] .work-animated { animation: none !important; }

    @keyframes domiki-work-bob-y {
      0%, 49% { transform: translate(0, 0); }
      50%, 100% { transform: translate(0, -4px); }
    }
    @keyframes domiki-work-bob-y-alt {
      0%, 49% { transform: translate(0, -4px); }
      50%, 100% { transform: translate(0, 0); }
    }
    @keyframes domiki-work-bob-x {
      0%, 49% { transform: translate(0, 0); }
      50%, 100% { transform: translate(4px, 0); }
    }
    @keyframes domiki-work-slide-x {
      0%, 32% { transform: translate(0, 0); }
      33%, 65% { transform: translate(4px, 0); }
      66%, 100% { transform: translate(8px, 0); }
    }
    @keyframes domiki-work-blink {
      0%, 49% { opacity: 1; }
      50%, 100% { opacity: .25; }
    }
    @keyframes domiki-work-blink-alt {
      0%, 49% { opacity: .25; }
      50%, 100% { opacity: 1; }
    }
    @keyframes domiki-work-flicker {
      0%, 49% { transform: translate(0, 0); opacity: 1; }
      50%, 100% { transform: translate(0, -4px); opacity: .8; }
    }

    @media (prefers-reduced-motion: reduce) {
      .work-animated { animation: none !important; }
    }
</style>
  <g class="variant-full"><rect x="0" y="108" width="128" height="4" fill="#5d6469"/>
  <rect x="0" y="112" width="128" height="12" fill="#92999e"/>
  <rect x="8" y="116" width="4" height="4" fill="#737b80"/>
  <rect x="56" y="116" width="4" height="4" fill="#737b80"/>
  <rect x="104" y="116" width="4" height="4" fill="#737b80"/>
  <g data-refinement-round="2"><rect x="8" y="104" width="116" height="4" fill="#4b5156"/></g><rect x="24" y="32" width="52" height="12" fill="#24282d"/>
  <rect x="12" y="40" width="76" height="68" fill="#24282d"/>
  <rect x="28" y="36" width="44" height="12" fill="#92999e"/>
  <rect x="16" y="44" width="68" height="60" fill="#92999e"/>
  <rect x="20" y="52" width="4" height="4" fill="#737b80"/>
  <rect x="76" y="72" width="8" height="4" fill="#737b80"/>
  <rect x="72" y="92" width="4" height="4" fill="#737b80"/>
  <rect x="28" y="52" width="44" height="8" fill="#986638"/>
  <rect x="32" y="60" width="8" height="48" fill="#704925"/>
  <rect x="60" y="60" width="8" height="48" fill="#704925"/>
  <rect x="40" y="60" width="20" height="48" fill="#24282d"/>
  <rect x="92" y="92" width="32" height="16" fill="#24282d"/>
  <rect x="96" y="84" width="24" height="12" fill="#24282d"/>
  <rect x="100" y="80" width="16" height="8" fill="#24282d"/>
  <rect x="96" y="96" width="24" height="8" fill="#e7ad35"/>
  <rect x="100" y="88" width="16" height="8" fill="#e7ad35"/>
  <rect x="104" y="84" width="8" height="4" fill="#e7ad35"/>
  <rect x="100" y="96" width="4" height="4" fill="#e8b83a"/>
  <rect x="108" y="88" width="4" height="4" fill="#e8b83a"/>
  <g class="lvl2">
    <rect x="72" y="100" width="16" height="4" fill="#704925"/>
    <rect x="72" y="104" width="16" height="4" fill="#986638"/>
    <rect x="76" y="100" width="4" height="4" fill="#e8b83a"/>
    <rect x="84" y="100" width="4" height="4" fill="#e8b83a"/>
    </g>
  <g class="lvl3">
    <rect x="20" y="52" width="4" height="4" fill="#704925"/>
    <rect x="16" y="56" width="12" height="16" fill="#24282d"/>
    <rect x="20" y="60" width="4" height="8" fill="#e7ad35"/>
    </g>
  <g class="lvl4">
    <rect x="4" y="68" width="16" height="4" fill="#5d6469"/>
    <rect x="8" y="72" width="4" height="36" fill="#704925"/>
    <rect x="12" y="80" width="16" height="4" fill="#5d6469"/>
    <rect x="16" y="84" width="4" height="24" fill="#704925"/>
    </g>
  <g class="lvl5">
    <rect x="28" y="56" width="44" height="4" fill="#e8b83a"/>
    <rect x="92" y="88" width="28" height="20" fill="#24282d"/>
    <rect x="96" y="92" width="20" height="12" fill="#e7ad35"/>
    <rect x="96" y="92" width="8" height="4" fill="#e8b83a"/>
    <rect x="108" y="92" width="8" height="4" fill="#e8b83a"/>
    </g>
<g data-refinement-round="3"><rect x="28" y="36" width="44" height="4" fill="#b4b9bc"/><rect x="16" y="44" width="68" height="4" fill="#a4aaae"/></g><g data-refinement-round="4"><rect x="20" y="52" width="4" height="4" fill="#c6cbce"/><rect x="76" y="72" width="4" height="4" fill="#c6cbce"/></g><g data-refinement-round="5"><rect x="100" y="84" width="16" height="4" fill="#f3c84f"/><rect x="96" y="92" width="24" height="4" fill="#bc7f16"/><rect x="104" y="80" width="4" height="4" fill="#fff1a0"/><rect x="108" y="88" width="4" height="4" fill="#fff1a0"/><rect x="48" y="36" width="4" height="4" fill="#e7ad35"/><rect x="44" y="40" width="12" height="4" fill="#c98b20"/><rect x="72" y="60" width="4" height="12" fill="#704925"/><rect x="72" y="60" width="8" height="4" fill="#e7ad35"/></g><g data-refinement-round="11"><rect x="112" y="84" width="4" height="4" fill="#fff1a0"/></g><g class="work-state"><g class="work-animated work-slide-x"><rect x="4" y="92" width="24" height="12" fill="#24282d"/><rect x="8" y="88" width="16" height="12" fill="#e8b83a"/><rect x="8" y="104" width="4" height="4" fill="#5d6469"/><rect x="20" y="104" width="4" height="4" fill="#5d6469"/></g><g class="work-animated work-blink"><rect x="12" y="84" width="4" height="4" fill="#f0e6d0"/><rect x="20" y="80" width="4" height="4" fill="#f0e6d0"/></g></g></g><g class="variant-medium"><rect x="8" y="108" width="112" height="4" fill="#5d6469"/><rect x="8" y="112" width="112" height="8" fill="#92999e"/><rect x="20" y="116" width="4" height="4" fill="#737b80"/><rect x="100" y="116" width="4" height="4" fill="#737b80"/><rect x="32" y="32" width="56" height="8" fill="#24282d"/><g data-refinement-round="2"><rect x="8" y="104" width="112" height="4" fill="#4b5156"/></g><rect x="24" y="40" width="72" height="68" fill="#24282d"/><rect x="28" y="44" width="64" height="64" fill="#92999e"/><rect x="44" y="64" width="32" height="44" fill="#24282d"/><rect x="52" y="68" width="16" height="40" fill="#704925"/><rect x="92" y="92" width="24" height="16" fill="#24282d"/><rect x="96" y="88" width="16" height="4" fill="#24282d"/><rect x="100" y="84" width="8" height="4" fill="#24282d"/><rect x="96" y="96" width="16" height="8" fill="#e8b83a"/><g class="lvl2"><rect x="36" y="56" width="48" height="8" fill="#986638"/><rect x="40" y="64" width="4" height="44" fill="#704925"/><rect x="80" y="64" width="4" height="44" fill="#704925"/></g><g class="lvl3"><rect x="12" y="76" width="12" height="32" fill="#704925"/><rect x="8" y="72" width="20" height="8" fill="#5d6469"/></g><g class="lvl4"><rect x="96" y="72" width="16" height="16" fill="#24282d"/><rect x="100" y="76" width="8" height="8" fill="#e8b83a"/></g><g class="lvl5"><rect x="36" y="44" width="48" height="8" fill="#e8b83a"/><rect x="100" y="80" width="8" height="4" fill="#f0e6d0"/></g><g data-refinement-round="9"><rect x="96" y="92" width="24" height="12" fill="#e7ad35"/><rect x="104" y="88" width="4" height="4" fill="#fff1a0"/></g><g class="work-state"><g class="work-animated work-slide-x"><rect x="4" y="92" width="24" height="12" fill="#24282d"/><rect x="8" y="88" width="16" height="12" fill="#e8b83a"/><rect x="8" y="104" width="4" height="4" fill="#5d6469"/><rect x="20" y="104" width="4" height="4" fill="#5d6469"/></g><g class="work-animated work-blink"><rect x="12" y="84" width="4" height="4" fill="#f0e6d0"/><rect x="20" y="80" width="4" height="4" fill="#f0e6d0"/></g></g></g><g class="variant-small"><rect x="8" y="108" width="112" height="4" fill="#5d6469"/><rect x="8" y="112" width="112" height="8" fill="#92999e"/><rect x="20" y="116" width="4" height="4" fill="#737b80"/><rect x="100" y="116" width="4" height="4" fill="#737b80"/><rect x="32" y="32" width="56" height="8" fill="#24282d"/><g data-refinement-round="2"><rect x="8" y="104" width="112" height="4" fill="#4b5156"/></g><rect x="24" y="40" width="72" height="68" fill="#24282d"/><rect x="28" y="44" width="64" height="64" fill="#92999e"/><rect x="44" y="64" width="32" height="44" fill="#24282d"/><rect x="52" y="68" width="16" height="40" fill="#704925"/><rect x="92" y="92" width="24" height="16" fill="#24282d"/><rect x="96" y="88" width="16" height="4" fill="#24282d"/><rect x="100" y="84" width="8" height="4" fill="#24282d"/><rect x="96" y="96" width="16" height="8" fill="#e8b83a"/><g data-refinement-round="10"><rect x="96" y="92" width="24" height="12" fill="#e7ad35"/></g><g class="work-state"><g class="work-animated work-slide-x"><rect x="4" y="92" width="24" height="12" fill="#24282d"/><rect x="8" y="88" width="16" height="12" fill="#e8b83a"/><rect x="8" y="104" width="4" height="4" fill="#5d6469"/><rect x="20" y="104" width="4" height="4" fill="#5d6469"/></g></g></g></svg>
