<svg xmlns="http://www.w3.org/2000/svg" viewBox="0 0 128 128" shape-rendering="crispEdges" data-level="1" data-resolution="128" data-size="128" data-working="false" data-motion="on">
  <title>Лесопилка</title>
  <desc>Очищенная версия 128×128 со встроенными вариантами data-size="64" и data-size="32". Состояние работы: data-working="true".</desc>
  <style>
    svg[data-level="1"] .lvl2, svg[data-level="1"] .lvl3, svg[data-level="1"] .lvl4, svg[data-level="1"] .lvl5,
    svg[data-level="2"] .lvl3, svg[data-level="2"] .lvl4, svg[data-level="2"] .lvl5,
    svg[data-level="3"] .lvl4, svg[data-level="3"] .lvl5,
    svg[data-level="4"] .lvl5 { display: none }
  
    .variant-medium, .variant-small { display: none; }
    svg[data-size="64"] .variant-full, svg[data-size="medium"] .variant-full,
    svg[data-size="32"] .variant-full, svg[data-size="small"] .variant-full { display: none; }
    svg[data-size="64"] .variant-medium, svg[data-size="medium"] .variant-medium { display: inline; }
    svg[data-size="32"] .variant-small, svg[data-size="small"] .variant-small { display: inline; }

    /* Activity state: works only for inline SVG/SVGR. */
    .work-state { display: none; }
    svg[data-working="true"] .work-state,
    svg[data-working="1"] .work-state { display: inline; }

    .work-animated {
      transform-box: fill-box;
      transform-origin: center;
      will-change: transform, opacity;
    }
    .work-bob-y { animation: domiki-work-bob-y var(--domiki-work-speed, 1s) steps(2, end) infinite; }
    .work-bob-y-alt { animation: domiki-work-bob-y-alt var(--domiki-work-speed, 1s) steps(2, end) infinite; }
    .work-bob-x { animation: domiki-work-bob-x var(--domiki-work-speed, 1s) steps(2, end) infinite; }
    .work-slide-x { animation: domiki-work-slide-x var(--domiki-work-speed, 1s) steps(3, end) infinite; }
    .work-blink { animation: domiki-work-blink var(--domiki-work-speed, 1s) steps(2, end) infinite; }
    .work-blink-alt { animation: domiki-work-blink-alt var(--domiki-work-speed, 1s) steps(2, end) infinite; }
    .work-flicker { animation: domiki-work-flicker var(--domiki-work-speed, 1s) steps(2, end) infinite; }

    svg[data-motion="paused"] .work-animated { animation-play-state: paused !important; }
    svg[data-motion="off"] .work-animated { animation: none !important; }

    @keyframes domiki-work-bob-y {
      0%, 49% { transform: translate(0, 0); }
      50%, 100% { transform: translate(0, -4px); }
    }
    @keyframes domiki-work-bob-y-alt {
      0%, 49% { transform: translate(0, -4px); }
      50%, 100% { transform: translate(0, 0); }
    }
    @keyframes domiki-work-bob-x {
      0%, 49% { transform: translate(0, 0); }
      50%, 100% { transform: translate(4px, 0); }
    }
    @keyframes domiki-work-slide-x {
      0%, 32% { transform: translate(0, 0); }
      33%, 65% { transform: translate(4px, 0); }
      66%, 100% { transform: translate(8px, 0); }
    }
    @keyframes domiki-work-blink {
      0%, 49% { opacity: 1; }
      50%, 100% { opacity: .25; }
    }
    @keyframes domiki-work-blink-alt {
      0%, 49% { opacity: .25; }
      50%, 100% { opacity: 1; }
    }
    @keyframes domiki-work-flicker {
      0%, 49% { transform: translate(0, 0); opacity: 1; }
      50%, 100% { transform: translate(0, -4px); opacity: .8; }
    }

    @media (prefers-reduced-motion: reduce) {
      .work-animated { animation: none !important; }
    }
</style>
  <g class="variant-full"><rect x="0" y="108" width="128" height="4" fill="#565656"/>
  <rect x="0" y="112" width="128" height="12" fill="#8f8f8f"/>
  <rect x="20" y="116" width="4" height="4" fill="#6e6e6e"/>
  <rect x="68" y="116" width="4" height="4" fill="#6e6e6e"/>
  <rect x="112" y="116" width="4" height="4" fill="#6e6e6e"/>
  <rect x="8" y="60" width="48" height="48" fill="#262626"/>
  <rect x="12" y="64" width="40" height="40" fill="#9a6a38"/>
  <rect x="4" y="48" width="56" height="16" fill="#262626"/>
  <rect x="8" y="52" width="48" height="8" fill="#6f4a24"/>
  <rect x="20" y="80" width="20" height="28" fill="#262626"/>
  <rect x="24" y="84" width="12" height="20" fill="#6f4a24"/>
  <rect x="88" y="72" width="8" height="36" fill="#6f4a24"/>
  <rect x="80" y="20" width="24" height="12" fill="#262626"/>
  <rect x="68" y="28" width="48" height="36" fill="#262626"/>
  <rect x="80" y="60" width="24" height="12" fill="#262626"/>
  <rect x="84" y="24" width="16" height="12" fill="#4f9a3c"/>
  <rect x="72" y="32" width="40" height="28" fill="#4f9a3c"/>
  <rect x="84" y="56" width="16" height="12" fill="#4f9a3c"/>
  <rect x="52" y="100" width="24" height="8" fill="#9a6a38"/>
  <rect x="72" y="100" width="4" height="8" fill="#b07c42"/>
  <g class="lvl2">
    <rect x="52" y="68" width="12" height="4" fill="#6f4a24"/>
    <rect x="56" y="72" width="4" height="20" fill="#c9c2b4"/>
    <rect x="60" y="76" width="4" height="4" fill="#565656"/>
    <rect x="60" y="84" width="4" height="4" fill="#565656"/>
    <rect x="56" y="92" width="24" height="8" fill="#9a6a38"/>
    <rect x="76" y="92" width="4" height="8" fill="#b07c42"/>
    </g>
  <g class="lvl3">
    <rect x="64" y="96" width="4" height="12" fill="#6f4a24"/>
    <rect x="80" y="96" width="4" height="12" fill="#6f4a24"/>
    <rect x="60" y="88" width="28" height="8" fill="#9a6a38"/>
    <rect x="60" y="88" width="28" height="4" fill="#b07c42"/>
    <rect x="84" y="88" width="4" height="8" fill="#b07c42"/>
    <rect x="72" y="88" width="4" height="4" fill="#262626"/>
    </g>
  <g class="lvl4">
    <rect x="108" y="92" width="12" height="16" fill="#6f4a24"/>
    <rect x="108" y="92" width="12" height="4" fill="#9a6a38"/>
    <rect x="108" y="84" width="8" height="8" fill="#565656"/>
    <rect x="116" y="76" width="4" height="8" fill="#6f4a24"/>
    </g>
  <g class="lvl5">
    <rect x="8" y="56" width="48" height="4" fill="#e8b83a"/>
    <rect x="12" y="68" width="32" height="4" fill="#e8b83a"/>
    <rect x="16" y="72" width="4" height="4" fill="#e8b83a"/>
    <rect x="24" y="72" width="4" height="4" fill="#e8b83a"/>
    <rect x="32" y="72" width="4" height="4" fill="#e8b83a"/>
    <rect x="40" y="64" width="8" height="8" fill="#6f4a24"/>
    </g>
<g class="work-state"><g class="work-animated work-bob-y"><rect x="76" y="72" width="4" height="32" fill="#c9c2b4"/><rect x="72" y="76" width="4" height="4" fill="#c9c2b4"/><rect x="80" y="80" width="4" height="4" fill="#c9c2b4"/><rect x="72" y="88" width="4" height="4" fill="#c9c2b4"/><rect x="80" y="96" width="4" height="4" fill="#c9c2b4"/></g><g class="work-animated work-slide-x"><rect x="44" y="96" width="28" height="8" fill="#b07c42"/><rect x="48" y="100" width="20" height="4" fill="#6f4a24"/></g></g></g><g class="variant-medium"><rect x="8" y="108" width="112" height="4" fill="#565656"/><rect x="8" y="112" width="112" height="8" fill="#8f8f8f"/><rect x="20" y="116" width="4" height="4" fill="#6e6e6e"/><rect x="100" y="116" width="4" height="4" fill="#6e6e6e"/><rect x="8" y="52" width="72" height="12" fill="#262626"/><rect x="12" y="56" width="64" height="4" fill="#6f4a24"/><rect x="16" y="64" width="60" height="44" fill="#262626"/><rect x="20" y="68" width="52" height="40" fill="#b07c42"/><rect x="28" y="80" width="20" height="28" fill="#262626"/><rect x="32" y="84" width="12" height="24" fill="#6f4a24"/><rect x="92" y="52" width="8" height="56" fill="#6f4a24"/><rect x="84" y="40" width="24" height="12" fill="#262626"/><rect x="76" y="48" width="40" height="28" fill="#262626"/><rect x="80" y="52" width="32" height="20" fill="#4f9a3c"/><g class="lvl2"><rect x="56" y="88" width="32" height="8" fill="#6f4a24"/><rect x="60" y="84" width="24" height="4" fill="#b07c42"/></g><g class="lvl3"><rect x="72" y="80" width="16" height="16" fill="#565656"/><rect x="76" y="76" width="8" height="24" fill="#c9c2b4"/></g><g class="lvl4"><rect x="8" y="80" width="8" height="28" fill="#6f4a24"/><rect x="4" y="76" width="16" height="8" fill="#9a6a38"/></g><g class="lvl5"><rect x="88" y="36" width="16" height="8" fill="#e8b83a"/><rect x="96" y="28" width="8" height="12" fill="#e8b83a"/></g><g class="work-state"><g class="work-animated work-bob-y"><rect x="76" y="72" width="4" height="32" fill="#c9c2b4"/><rect x="72" y="76" width="4" height="4" fill="#c9c2b4"/><rect x="80" y="80" width="4" height="4" fill="#c9c2b4"/><rect x="72" y="88" width="4" height="4" fill="#c9c2b4"/><rect x="80" y="96" width="4" height="4" fill="#c9c2b4"/></g><g class="work-animated work-slide-x"><rect x="44" y="96" width="28" height="8" fill="#b07c42"/><rect x="48" y="100" width="20" height="4" fill="#6f4a24"/></g></g></g><g class="variant-small"><rect x="8" y="108" width="112" height="4" fill="#565656"/><rect x="8" y="112" width="112" height="8" fill="#8f8f8f"/><rect x="20" y="116" width="4" height="4" fill="#6e6e6e"/><rect x="100" y="116" width="4" height="4" fill="#6e6e6e"/><rect x="8" y="52" width="72" height="12" fill="#262626"/><rect x="12" y="56" width="64" height="4" fill="#6f4a24"/><rect x="16" y="64" width="60" height="44" fill="#262626"/><rect x="20" y="68" width="52" height="40" fill="#b07c42"/><rect x="28" y="80" width="20" height="28" fill="#262626"/><rect x="32" y="84" width="12" height="24" fill="#6f4a24"/><rect x="92" y="52" width="8" height="56" fill="#6f4a24"/><rect x="84" y="40" width="24" height="12" fill="#262626"/><rect x="76" y="48" width="40" height="28" fill="#262626"/><rect x="80" y="52" width="32" height="20" fill="#4f9a3c"/><g class="work-state"><g class="work-animated work-bob-y"><rect x="76" y="72" width="4" height="32" fill="#c9c2b4"/><rect x="72" y="76" width="4" height="4" fill="#c9c2b4"/><rect x="80" y="80" width="4" height="4" fill="#c9c2b4"/><rect x="72" y="88" width="4" height="4" fill="#c9c2b4"/><rect x="80" y="96" width="4" height="4" fill="#c9c2b4"/></g></g></g></svg>
