<svg xmlns="http://www.w3.org/2000/svg" viewBox="0 0 64 64" shape-rendering="crispEdges" data-level="1">
  <title>Лесопилка</title>
  <style>
    svg[data-level="1"] .lvl2, svg[data-level="1"] .lvl3, svg[data-level="1"] .lvl4, svg[data-level="1"] .lvl5,
    svg[data-level="2"] .lvl3, svg[data-level="2"] .lvl4, svg[data-level="2"] .lvl5,
    svg[data-level="3"] .lvl4, svg[data-level="3"] .lvl5,
    svg[data-level="4"] .lvl5 { display: none }
  </style>

  <rect x="0" y="54" width="64" height="2" fill="#565656"/>
  <rect x="0" y="56" width="64" height="6" fill="#8f8f8f"/>
  <rect x="10" y="58" width="2" height="2" fill="#6e6e6e"/>
  <rect x="34" y="58" width="2" height="2" fill="#6e6e6e"/>
  <rect x="56" y="58" width="2" height="2" fill="#6e6e6e"/>

  <rect x="4" y="30" width="24" height="24" fill="#262626"/>
  <rect x="6" y="32" width="20" height="20" fill="#9a6a38"/>

  <rect x="2" y="24" width="28" height="8" fill="#262626"/>
  <rect x="4" y="26" width="24" height="4" fill="#6f4a24"/>

  <rect x="10" y="40" width="10" height="14" fill="#262626"/>
  <rect x="12" y="42" width="6" height="10" fill="#6f4a24"/>

  <rect x="44" y="36" width="4" height="18" fill="#6f4a24"/>
  <rect x="40" y="10" width="12" height="6" fill="#262626"/>
  <rect x="34" y="14" width="24" height="18" fill="#262626"/>
  <rect x="40" y="30" width="12" height="6" fill="#262626"/>
  <rect x="42" y="12" width="8" height="6" fill="#4f9a3c"/>
  <rect x="36" y="16" width="20" height="14" fill="#4f9a3c"/>
  <rect x="42" y="28" width="8" height="6" fill="#4f9a3c"/>

  <rect x="26" y="50" width="12" height="4" fill="#9a6a38"/>
  <rect x="36" y="50" width="2" height="4" fill="#b07c42"/>

  <g class="lvl2">
    <rect x="26" y="34" width="6" height="2" fill="#6f4a24"/>
    <rect x="28" y="36" width="2" height="10" fill="#c9c2b4"/>
    <rect x="30" y="38" width="2" height="2" fill="#565656"/>
    <rect x="30" y="42" width="2" height="2" fill="#565656"/>
    <rect x="28" y="46" width="12" height="4" fill="#9a6a38"/>
    <rect x="38" y="46" width="2" height="4" fill="#b07c42"/>
  </g>

  <g class="lvl3">
    <rect x="32" y="48" width="2" height="6" fill="#6f4a24"/>
    <rect x="40" y="48" width="2" height="6" fill="#6f4a24"/>
    <rect x="30" y="44" width="14" height="4" fill="#9a6a38"/>
    <rect x="30" y="44" width="14" height="2" fill="#b07c42"/>
    <rect x="42" y="44" width="2" height="4" fill="#b07c42"/>
    <rect x="36" y="44" width="2" height="2" fill="#262626"/>
  </g>

  <g class="lvl4">
    <rect x="54" y="46" width="6" height="8" fill="#6f4a24"/>
    <rect x="54" y="46" width="6" height="2" fill="#9a6a38"/>
    <rect x="54" y="42" width="4" height="4" fill="#565656"/>
    <rect x="58" y="38" width="2" height="4" fill="#6f4a24"/>
  </g>

  <g class="lvl5">
    <rect x="4" y="28" width="24" height="2" fill="#e8b83a"/>
    <rect x="6" y="34" width="16" height="2" fill="#e8b83a"/>
    <rect x="8" y="36" width="2" height="2" fill="#e8b83a"/>
    <rect x="12" y="36" width="2" height="2" fill="#e8b83a"/>
    <rect x="16" y="36" width="2" height="2" fill="#e8b83a"/>
    <rect x="20" y="32" width="4" height="4" fill="#6f4a24"/>
  </g>
</svg>
