<svg data-weather="clear" xmlns="http://www.w3.org/2000/svg" viewBox="0 0 128 128" shape-rendering="crispEdges" data-level="1" data-size="128" data-working="false" data-motion="on" role="img" aria-labelledby="market-title market-desc" focusable="false" preserveAspectRatio="xMidYMid meet" color-interpolation="sRGB" data-active="true" data-state="idle" data-animation-profile="structure" style="--asset-phase:-1.68s">
  <title id="market-title">Магазин</title>
  <desc id="market-desc">Доработанный пиксельный SVG «Магазин»: варианты 128/64/32, уровни 1–5 и предметный многофазный рабочий процесс data-working/data-motion. Поддерживаются состояния idle, selected, attention, pressed, disabled и режимы motion on/slow/fast/paused/off.</desc>
  <style>svg[data-level="1"] .lvl2,svg[data-level="1"] .lvl3,svg[data-level="1"] .lvl4,svg[data-level="1"] .lvl5,svg[data-level="2"] .lvl3,svg[data-level="2"] .lvl4,svg[data-level="2"] .lvl5,svg[data-level="3"] .lvl4,svg[data-level="3"] .lvl5,svg[data-level="4"] .lvl5{display:none}.variant-medium,.variant-small{display:none}svg[data-size="64"] .variant-full,svg[data-size="medium"] .variant-full,svg[data-size="32"] .variant-full,svg[data-size="small"] .variant-full{display:none}svg[data-size="64"] .variant-medium,svg[data-size="medium"] .variant-medium{display:inline}svg[data-size="32"] .variant-small,svg[data-size="small"] .variant-small{display:inline}svg{--domiki-work-speed:1.2s;--domiki-work-step:4px}svg[data-motion="slow"]{--domiki-work-speed:1.8s}svg[data-motion="fast"]{--domiki-work-speed:.72s}.work-state{display:none}svg[data-working="true"] .work-state,svg[data-working="1"] .work-state{display:inline;animation:domiki-work-reveal 180ms steps(2,end) both}.work-animated{transform-box:fill-box;transform-origin:center;animation-duration:var(--domiki-work-speed);animation-timing-function:steps(1,end);animation-iteration-count:infinite;animation-fill-mode:both}svg[data-working="true"] .work-animated,svg[data-working="1"] .work-animated{will-change:transform,opacity}.work-state .work-animated:nth-child(3n + 1){animation-delay:-.12s}.work-state .work-animated:nth-child(3n + 2){animation-delay:-.28s}.work-state .work-animated:nth-child(3n){animation-delay:-.44s}svg:not([data-working="true"]):not([data-working="1"]) .work-animated,svg[data-size="128"] .variant-medium .work-animated,svg[data-size="128"] .variant-small .work-animated,svg[data-size="64"] .variant-full .work-animated,svg[data-size="64"] .variant-small .work-animated,svg[data-size="medium"] .variant-full .work-animated,svg[data-size="medium"] .variant-small .work-animated,svg[data-size="32"] .variant-full .work-animated,svg[data-size="32"] .variant-medium .work-animated,svg[data-size="small"] .variant-full .work-animated,svg[data-size="small"] .variant-medium .work-animated{animation-name:none;will-change:auto}svg[data-motion="paused"] .work-animated,svg[data-motion="paused"] .work-state{animation-play-state:paused !important}svg[data-motion="off"] .work-animated,svg[data-motion="off"] .work-state{animation:none !important}@media (prefers-reduced-motion:reduce){.work-animated,.work-state{animation:none !important}}svg{--domiki-work-speed:3.2s;--domiki-long-speed:4.4s;--domiki-mech-speed:.64s}svg[data-motion="slow"]{--domiki-work-speed:4.8s;--domiki-long-speed:6.6s;--domiki-mech-speed:.96s}svg[data-motion="fast"]{--domiki-work-speed:1.9s;--domiki-long-speed:2.65s;--domiki-mech-speed:.4s}.work-state .work-animated.logic-market-sign{animation-name:domiki-market-sign;animation-duration:var(--domiki-long-speed);animation-delay:0s;transform-origin:50% 0}.work-state .work-animated.logic-market-trade{animation-name:domiki-market-trade;animation-duration:var(--domiki-long-speed);animation-delay:0s}svg:not([data-working="true"]):not([data-working="1"]) .work-animated,svg[data-size="128"] .variant-medium .work-animated,svg[data-size="128"] .variant-small .work-animated,svg[data-size="64"] .variant-full .work-animated,svg[data-size="64"] .variant-small .work-animated,svg[data-size="medium"] .variant-full .work-animated,svg[data-size="medium"] .variant-small .work-animated,svg[data-size="32"] .variant-full .work-animated,svg[data-size="32"] .variant-medium .work-animated,svg[data-size="small"] .variant-full .work-animated,svg[data-size="small"] .variant-medium .work-animated{animation-name:none !important;will-change:auto}@media (prefers-reduced-motion:reduce){.work-animated{animation:none !important;opacity:1;transform:none}}@keyframes domiki-work-reveal{0%{opacity:0}50%,100%{opacity:1}}@keyframes domiki-market-sign{0%,14%{transform:translate(0,0)}28%{transform:translate(2px,2px)}42%{transform:translate(4px,0)}56%{transform:translate(2px,2px)}70%{transform:translate(0,0)}82%{transform:translate(-2px,2px)}92%,100%{transform:translate(0,0)}}@keyframes domiki-market-trade{0%,18%{opacity:.25}20%,26%{opacity:1}28%,48%{opacity:.35}50%,56%{opacity:.9}58%,78%{opacity:.3}80%,86%{opacity:1}88%,100%{opacity:.25}}</style>
  <style>svg{--asset-loop:4.8s;--asset-accent-loop:3.6s;--asset-fx-loop:3.2s;--asset-phase:-.6s;--asset-step:1px;--asset-neg-step:-1px;--asset-double-step:2px;--asset-neg-double-step:-2px;overflow:hidden}
.asset-stage,.asset-fx,.asset-fx *{transform-box:fill-box;transform-origin:center}.asset-fx,.asset-fx *{pointer-events:none}
svg[data-motion="on"][data-active="true"] .profile-bob{animation:asset-enter .32s steps(4,end) both,asset-bob var(--asset-loop) steps(1,end) var(--asset-phase) infinite}
svg[data-motion="on"][data-active="true"] .profile-nudge{animation:asset-enter .32s steps(4,end) both,asset-nudge var(--asset-loop) steps(1,end) var(--asset-phase) infinite}
svg[data-motion="on"][data-active="true"] .profile-press{animation:asset-enter .24s steps(3,end) both,asset-press var(--asset-loop) steps(1,end) var(--asset-phase) infinite}
svg[data-motion="on"][data-active="true"] .profile-grounded{animation:asset-enter .32s steps(4,end) both,asset-grounded var(--asset-loop) steps(1,end) var(--asset-phase) infinite}
@keyframes asset-enter{0%{opacity:0;transform:translateY(2px)}66%{opacity:1;transform:translateY(-1px)}100%{opacity:1;transform:translateY(0)}}
@keyframes asset-bob{0%,70%,100%{transform:translateY(0)}74%,82%{transform:translateY(var(--asset-neg-step))}86%{transform:translateY(0)}}
@keyframes asset-nudge{0%,68%,100%{transform:translate(0,0)}72%,80%{transform:translate(var(--asset-step),var(--asset-step))}84%{transform:translate(0,0)}}
@keyframes asset-press{0%,70%,100%{transform:translateY(0)}74%,82%{transform:translateY(var(--asset-step))}86%{transform:translateY(0)}}
@keyframes asset-grounded{0%,78%,100%{opacity:1}82%{opacity:.97}86%{opacity:1}}</style><style>.asset-accent{transform-box:fill-box;transform-origin:center}
svg[data-motion="on"][data-active="true"] .asset-accent{animation:asset-accent var(--asset-accent-loop) steps(1,end) var(--asset-local-phase,-.4s) infinite}
.asset-phase-1{--asset-local-phase:-.45s}.asset-phase-2{--asset-local-phase:-1.15s}.asset-phase-3{--asset-local-phase:-2.05s}.asset-phase-4{--asset-local-phase:-2.8s}
@keyframes asset-accent{0%,42%,58%,100%{opacity:1}46%{opacity:.7}50%{opacity:1}54%{opacity:.84}}</style><style>.fx-semantic{opacity:1}.fx-glint,.fx-rise,.fx-flow,.fx-trail,.fx-scan,.fx-fire,.fx-progress{opacity:0}
svg[data-motion="on"][data-active="true"] .fx-glint{animation:fx-glint var(--asset-fx-loop) steps(1,end) var(--asset-fx-phase,-.5s) infinite}
svg[data-motion="on"][data-active="true"] .fx-rise{animation:fx-rise var(--asset-fx-loop) steps(1,end) var(--asset-fx-phase,-.8s) infinite}
svg[data-motion="on"][data-active="true"] .fx-flow{animation:fx-flow var(--asset-fx-loop) steps(1,end) var(--asset-fx-phase,-.3s) infinite}
svg[data-motion="on"][data-active="true"] .fx-trail{animation:fx-trail var(--asset-fx-loop) steps(1,end) var(--asset-fx-phase,-.9s) infinite}
svg[data-motion="on"][data-active="true"] .fx-scan{animation:fx-scan var(--asset-fx-loop) steps(1,end) var(--asset-fx-phase,-.1s) infinite}
svg[data-motion="on"][data-active="true"] .fx-fire{animation:fx-fire var(--asset-fx-loop) steps(1,end) var(--asset-fx-phase,-.2s) infinite}
svg[data-motion="on"][data-active="true"] .fx-progress{animation:fx-progress var(--asset-fx-loop) steps(1,end) var(--asset-fx-phase,-.6s) infinite}
@keyframes fx-glint{0%,52%,100%{opacity:0}56%,64%{opacity:1}68%{opacity:0}}
@keyframes fx-rise{0%,44%{opacity:0;transform:translateY(var(--asset-step))}48%{opacity:1}58%{opacity:.8;transform:translateY(var(--asset-neg-step))}66%,100%{opacity:0;transform:translateY(var(--asset-neg-double-step))}}
@keyframes fx-flow{0%,34%{opacity:0;transform:translateY(var(--asset-neg-step))}40%{opacity:1}56%{opacity:1;transform:translateY(var(--asset-step))}64%,100%{opacity:0;transform:translateY(var(--asset-double-step))}}
@keyframes fx-trail{0%,36%{opacity:0;transform:translateX(var(--asset-neg-step))}42%,56%{opacity:1}62%{opacity:0;transform:translateX(var(--asset-double-step))}100%{opacity:0}}
@keyframes fx-scan{0%,34%{opacity:0;transform:translateY(var(--asset-neg-double-step))}40%,48%{opacity:.9}58%{opacity:.65;transform:translateY(var(--asset-double-step))}64%,100%{opacity:0}}
@keyframes fx-fire{0%,100%{opacity:.76;transform:translateY(0)}25%{opacity:1;transform:translateY(var(--asset-neg-step))}50%{opacity:.72;transform:translateY(0)}75%{opacity:1;transform:translateY(var(--asset-neg-step))}}
@keyframes fx-progress{0%,38%,100%{opacity:0}42%,58%{opacity:1}62%{opacity:.55}68%{opacity:0}}</style><style>.fx-selection,.fx-attention{display:none}
svg[data-state="selected"] .fx-selection{display:inline;animation:asset-selected 1.2s steps(1,end) infinite}
svg[data-state="attention"] .fx-attention{display:inline;animation:asset-attention 1s steps(1,end) infinite}
@keyframes asset-selected{0%,100%{opacity:1}50%{opacity:.55}}
@keyframes asset-attention{0%,32%,100%{opacity:0}36%,68%{opacity:1}72%{opacity:0}}</style><style>svg[data-state="pressed"] .asset-stage{animation:none!important;transform:translateY(var(--asset-step))}
svg[data-state="disabled"] .asset-stage,svg[data-state="disabled"] .asset-fx{animation:none!important;filter:saturate(.25);opacity:.58}
svg[data-state="hidden"] .asset-stage,svg[data-state="hidden"] .asset-fx{visibility:hidden}
svg:hover:not([data-state="disabled"]) .asset-stage{animation:asset-hover .26s steps(3,end) both}
@keyframes asset-hover{0%{transform:translateY(0)}60%{transform:translateY(var(--asset-neg-step))}100%{transform:translateY(0)}}</style><style>svg[data-motion="slow"]{--asset-loop:6.8s;--asset-accent-loop:5.2s;--asset-fx-loop:4.8s}
svg[data-motion="fast"]{--asset-loop:3.1s;--asset-accent-loop:2.4s;--asset-fx-loop:2s}
svg[data-motion="paused"] *,svg[data-motion="paused"] .asset-stage{animation-play-state:paused!important}
svg[data-motion="off"] *,svg[data-motion="off"] .asset-stage{animation:none!important}</style><style>svg[data-size="32"]{--asset-step:1px}svg[data-size="24"]{--asset-step:1px}
svg[data-size="32"] .fx-minor,svg[data-size="24"] .fx-minor,svg[data-size="small"] .fx-minor{display:none}
svg[data-size="24"] .fx-selection{opacity:.9}</style><style>svg[data-motion="on"][data-active="false"] .asset-stage,svg[data-motion="on"][data-active="false"] .asset-fx *{animation:none!important}
@media (prefers-reduced-motion:reduce){.asset-stage,.asset-fx *,.asset-accent{animation:none!important;transform:none!important}.fx-semantic,.fx-attention{display:none!important}}</style><style>.fx-phase-1{--asset-fx-phase:-.35s}.fx-phase-2{--asset-fx-phase:-1.05s}.fx-phase-3{--asset-fx-phase:-1.75s}.fx-phase-4{--asset-fx-phase:-2.45s}
svg[data-animation-profile="structure"] .asset-accent{--asset-accent-loop:4.4s}
svg[data-animation-profile="wealth"] .fx-glint,svg[data-animation-profile="badge"] .fx-glint{--asset-fx-loop:2.8s}</style><g class="asset-stage profile-grounded"><g class="variant-full"><rect x="0" y="108" width="128" height="4" fill="#5d6469"/>
  <rect x="0" y="112" width="128" height="12" fill="#92999e"/>
  <rect x="8" y="116" width="4" height="4" fill="#737b80"/>
  <rect x="56" y="116" width="4" height="4" fill="#737b80"/>
  <rect x="104" y="116" width="4" height="4" fill="#737b80"/>
  <g><rect x="12" y="104" width="104" height="4" fill="#4b5156"/></g><rect x="16" y="56" width="96" height="52" fill="#262626"/>
  <rect x="20" y="60" width="88" height="44" fill="#EFE6D4"/>
  <rect x="12" y="44" width="104" height="16" fill="#262626"/>
  <rect x="16" y="48" width="96" height="8" fill="#c84444"/>
  <rect x="28" y="68" width="32" height="24" fill="#262626"/>
  <rect x="32" y="72" width="24" height="16" fill="#4A7AB5"/>
  <rect x="72" y="72" width="24" height="36" fill="#262626"/>
  <rect x="76" y="76" width="16" height="28" fill="#704925"/>
  <g class="lvl2">
    <rect x="24" y="60" width="8" height="8" fill="#c84444" class="asset-accent asset-phase-1"/>
    <rect x="32" y="60" width="8" height="8" fill="#EFE6D4" class="asset-accent asset-phase-2"/>
    <rect x="40" y="60" width="8" height="8" fill="#c84444"/>
    <rect x="48" y="60" width="8" height="8" fill="#EFE6D4"/>
    <rect x="56" y="60" width="8" height="8" fill="#c84444"/>
    </g>
  <g class="lvl3">
    <rect x="92" y="84" width="24" height="24" fill="#262626"/>
    <rect x="96" y="88" width="8" height="4" fill="#704925"/>
    <rect x="96" y="92" width="8" height="12" fill="#dc8b1b"/>
    <rect x="104" y="84" width="8" height="4" fill="#704925"/>
    <rect x="104" y="88" width="8" height="16" fill="#dc8b1b"/>
    </g>
  <g class="lvl4">
    <rect x="8" y="56" width="8" height="4" fill="#704925"/>
    <rect x="12" y="60" width="4" height="4" fill="#704925"/>
    <rect x="4" y="64" width="20" height="16" fill="#262626"/>
    <rect x="8" y="68" width="12" height="8" fill="#986638"/>
    <rect x="12" y="68" width="4" height="4" fill="#262626"/>
    </g>
  <g class="lvl5">
    <rect x="16" y="52" width="96" height="4" fill="#e8b83a"/>
    <rect x="8" y="68" width="12" height="8" fill="#e8b83a"/>
    <rect x="12" y="68" width="4" height="4" fill="#262626"/>
    </g>
<g><rect x="20" y="48" width="88" height="4" fill="#e05a5a"/><rect x="20" y="60" width="88" height="4" fill="#fff2dc"/></g><g><rect x="32" y="72" width="8" height="4" fill="#91b7dc"/><rect x="32" y="88" width="24" height="4" fill="#315c86"/><rect x="76" y="76" width="4" height="4" fill="#9a6b3d"/></g><g><rect x="96" y="68" width="20" height="4" fill="#704925"/><rect x="104" y="72" width="12" height="16" fill="#262626"/><rect x="108" y="76" width="4" height="8" fill="#E8B83A" class="asset-accent asset-phase-1"/><rect x="24" y="96" width="16" height="8" fill="#986638"/><rect x="28" y="92" width="8" height="4" fill="#b98246"/><rect x="44" y="100" width="12" height="4" fill="#704925"/></g><g><rect x="20" y="104" width="88" height="4" fill="#d6cab3"/></g><g class="work-state"><rect x="60" y="28" width="4" height="16" fill="#704925"/><rect x="52" y="28" width="24" height="4" fill="#704925"/><g class="work-animated logic-market-sign"><rect x="56" y="32" width="16" height="12" fill="#262626"/><rect x="60" y="36" width="8" height="4" fill="#e8b83a"/></g><g class="work-animated logic-market-trade"><rect x="36" y="64" width="4" height="4" fill="#e8b83a"/><rect x="44" y="68" width="4" height="4" fill="#e8b83a"/><rect x="52" y="64" width="4" height="4" fill="#e8b83a"/></g></g></g><g class="variant-medium"><rect x="8" y="108" width="112" height="4" fill="#5d6469"/><rect x="8" y="112" width="112" height="8" fill="#92999e"/><rect x="20" y="116" width="4" height="4" fill="#737b80"/><rect x="100" y="116" width="4" height="4" fill="#737b80"/><rect x="16" y="44" width="96" height="12" fill="#262626"/><g><rect x="12" y="104" width="104" height="4" fill="#4b5156"/></g><rect x="20" y="48" width="88" height="4" fill="#c84444"/><rect x="24" y="56" width="80" height="52" fill="#262626"/><rect x="28" y="60" width="72" height="44" fill="#EFE6D4"/><rect x="32" y="68" width="28" height="24" fill="#262626"/><rect x="36" y="72" width="20" height="16" fill="#4A7AB5"/><rect x="72" y="68" width="24" height="40" fill="#262626"/><rect x="76" y="72" width="16" height="36" fill="#704925"/><g class="lvl2"><rect x="28" y="60" width="36" height="8" fill="#e8b83a"/><rect x="32" y="64" width="28" height="4" fill="#E8B83A"/></g><g class="lvl3"><rect x="8" y="60" width="12" height="20" fill="#262626"/><rect x="12" y="64" width="4" height="12" fill="#e8b83a" class="asset-accent asset-phase-4"/></g><g class="lvl4"><rect x="100" y="84" width="16" height="24" fill="#704925"/><rect x="104" y="80" width="8" height="4" fill="#b98246"/></g><g class="lvl5"><rect x="20" y="40" width="88" height="4" fill="#e8b83a"/></g><g><rect x="104" y="72" width="12" height="16" fill="#262626"/><rect x="108" y="76" width="4" height="8" fill="#E8B83A" class="asset-accent asset-phase-2"/></g><g class="work-state"><rect x="60" y="28" width="4" height="16" fill="#704925"/><rect x="52" y="28" width="24" height="4" fill="#704925"/><g class="work-animated logic-market-sign"><rect x="56" y="32" width="16" height="12" fill="#262626"/><rect x="60" y="36" width="8" height="4" fill="#e8b83a"/></g><g class="work-animated logic-market-trade"><rect x="36" y="64" width="4" height="4" fill="#e8b83a"/><rect x="44" y="68" width="4" height="4" fill="#e8b83a"/><rect x="52" y="64" width="4" height="4" fill="#e8b83a"/></g></g></g><g class="variant-small"><rect x="8" y="108" width="112" height="4" fill="#5d6469"/><rect x="8" y="112" width="112" height="8" fill="#92999e"/><rect x="20" y="116" width="4" height="4" fill="#737b80"/><rect x="100" y="116" width="4" height="4" fill="#737b80"/><rect x="16" y="44" width="96" height="12" fill="#262626"/><g><rect x="12" y="104" width="104" height="4" fill="#4b5156"/></g><rect x="20" y="48" width="88" height="4" fill="#c84444"/><rect x="24" y="56" width="80" height="52" fill="#262626"/><rect x="28" y="60" width="72" height="44" fill="#EFE6D4"/><rect x="32" y="68" width="28" height="24" fill="#262626"/><rect x="36" y="72" width="20" height="16" fill="#4A7AB5"/><rect x="72" y="68" width="24" height="40" fill="#262626"/><rect x="76" y="72" width="16" height="36" fill="#704925"/><g><rect x="104" y="72" width="12" height="16" fill="#262626"/><rect x="108" y="76" width="4" height="8" fill="#E8B83A" class="asset-accent asset-phase-3"/></g><g class="work-state"><rect x="60" y="28" width="4" height="16" fill="#704925"/><rect x="52" y="28" width="24" height="4" fill="#704925"/><g class="work-animated logic-market-sign"><rect x="56" y="32" width="16" height="12" fill="#262626"/><rect x="60" y="36" width="8" height="4" fill="#e8b83a"/></g></g><g class="small-tier-pips"><g class="lvl2"><rect x="80" y="112" width="8" height="8" fill="#5d9991"/></g><g class="lvl3"><rect x="88" y="112" width="8" height="8" fill="#4A7AB5"/></g><g class="lvl4"><rect x="96" y="112" width="8" height="8" fill="#c84444"/></g><g class="lvl5"><rect x="104" y="112" width="8" height="8" fill="#e8b83a"/></g></g></g></g><g class="asset-fx fx-semantic" aria-hidden="true"/><g class="asset-fx fx-selection" aria-hidden="true"><rect x="4" y="4" width="12" height="4" fill="#e8b83a"/><rect x="4" y="4" width="4" height="12" fill="#e8b83a"/><rect x="112" y="4" width="12" height="4" fill="#e8b83a"/><rect x="124" y="4" width="4" height="12" fill="#e8b83a"/><rect x="4" y="124" width="12" height="4" fill="#e8b83a"/><rect x="4" y="112" width="4" height="12" fill="#e8b83a"/><rect x="112" y="124" width="12" height="4" fill="#e8b83a"/><rect x="124" y="112" width="4" height="12" fill="#e8b83a"/></g><g class="asset-fx fx-attention" aria-hidden="true"><rect x="112" y="8" width="4" height="8" fill="#c84444"/><rect x="108" y="4" width="12" height="4" fill="#e8b83a"/><rect x="112" y="16" width="4" height="4" fill="#efe6d4"/></g><!-- postmerge-v5-weather-reaction -->
<style>
.weather-reaction{display:none;pointer-events:none}
svg[data-weather="frost"] .weather-frost,svg[data-weather="rain"] .weather-rain,svg[data-weather="drought"] .weather-drought,svg[data-weather="wind"] .weather-wind,svg[data-weather="fair_day"] .weather-fair{display:inline}
.weather-reaction *{transform-box:fill-box;transform-origin:center}
svg[data-weather="rain"][data-motion="on"] .weather-drop{animation:domiki-weather-rain 1.2s steps(3,end) infinite}
svg[data-weather="wind"][data-motion="on"] .weather-streak{animation:domiki-weather-wind 1.8s steps(3,end) infinite}
svg[data-weather="fair_day"][data-motion="on"] .weather-glint{animation:domiki-weather-glint 2.8s steps(2,end) infinite}
svg[data-weather="drought"][data-motion="on"] .weather-dust{animation:domiki-weather-dust 2.4s steps(2,end) infinite}
@keyframes domiki-weather-rain{0%{opacity:0;transform:translateY(-4px)}34%,68%{opacity:.9}100%{opacity:0;transform:translateY(8px)}}
@keyframes domiki-weather-wind{0%,100%{opacity:0;transform:translateX(-6px)}34%,68%{opacity:.8}100%{transform:translateX(8px)}}
@keyframes domiki-weather-glint{0%,44%,100%{opacity:0}52%,68%{opacity:1}}
@keyframes domiki-weather-dust{0%,100%{opacity:0;transform:translateX(-2px)}50%{opacity:.72;transform:translateX(3px)}}
@media(prefers-reduced-motion:reduce){.weather-reaction *{animation:none!important;transform:none!important}}
</style><g class="weather-reaction weather-frost" aria-hidden="true"><rect x="12" y="42" width="8" height="4" fill="#efe6d4" class="weather-snow-cap"/><rect x="14" y="46" width="6" height="2" fill="#c9c2b4" class="weather-snow-shadow"/><rect x="32" y="42" width="8" height="4" fill="#efe6d4" class="weather-snow-cap"/><rect x="34" y="46" width="6" height="2" fill="#c9c2b4" class="weather-snow-shadow"/><rect x="52" y="26" width="8" height="4" fill="#efe6d4" class="weather-snow-cap"/><rect x="54" y="30" width="6" height="2" fill="#c9c2b4" class="weather-snow-shadow"/><rect x="72" y="26" width="8" height="4" fill="#efe6d4" class="weather-snow-cap"/><rect x="74" y="30" width="6" height="2" fill="#c9c2b4" class="weather-snow-shadow"/><rect x="82" y="42" width="8" height="4" fill="#efe6d4" class="weather-snow-cap"/><rect x="84" y="46" width="6" height="2" fill="#c9c2b4" class="weather-snow-shadow"/><rect x="92" y="42" width="8" height="4" fill="#efe6d4" class="weather-snow-cap"/><rect x="94" y="46" width="6" height="2" fill="#c9c2b4" class="weather-snow-shadow"/><rect x="112" y="42" width="8" height="4" fill="#efe6d4" class="weather-snow-cap"/><rect x="114" y="46" width="6" height="2" fill="#c9c2b4" class="weather-snow-shadow"/><rect x="18" y="112" width="24" height="4" fill="#efe6d4"/><rect x="72" y="108" width="30" height="4" fill="#efe6d4"/></g><g class="weather-reaction weather-rain" aria-hidden="true"><rect x="14" y="18" width="3" height="12" fill="#4a7ab5" class="weather-drop"/><rect x="34" y="10" width="3" height="14" fill="#4a7ab5" class="weather-drop"/><rect x="56" y="20" width="3" height="12" fill="#4a7ab5" class="weather-drop"/><rect x="78" y="12" width="3" height="14" fill="#4a7ab5" class="weather-drop"/><rect x="102" y="18" width="3" height="12" fill="#4a7ab5" class="weather-drop"/><rect x="20" y="108" width="28" height="4" fill="#4a7ab5"/><rect x="70" y="112" width="34" height="4" fill="#4a7ab5"/><rect x="28" y="112" width="12" height="2" fill="#c9c2b4"/></g><g class="weather-reaction weather-drought" aria-hidden="true"><rect x="12" y="104" width="4" height="8" fill="#e0a63a"/><rect x="8" y="106" width="4" height="4" fill="#e0a63a"/><rect x="16" y="102" width="4" height="6" fill="#e0a63a"/><rect x="52" y="106" width="4" height="6" fill="#e0a63a"/><rect x="48" y="104" width="4" height="4" fill="#e0a63a"/><rect x="56" y="102" width="4" height="8" fill="#e0a63a"/><rect x="102" y="104" width="4" height="8" fill="#e0a63a"/><rect x="98" y="106" width="4" height="4" fill="#e0a63a"/><rect x="22" y="114" width="12" height="3" fill="#9a6a38" class="weather-dust"/><rect x="74" y="110" width="16" height="3" fill="#9a6a38" class="weather-dust"/></g><g class="weather-reaction weather-wind" aria-hidden="true"><rect x="4" y="24" width="22" height="3" fill="#c9c2b4" class="weather-streak"/><rect x="10" y="30" width="30" height="3" fill="#efe6d4" class="weather-streak"/><rect x="82" y="46" width="36" height="3" fill="#c9c2b4" class="weather-streak"/><rect x="92" y="52" width="24" height="3" fill="#efe6d4" class="weather-streak"/><rect x="4" y="74" width="28" height="3" fill="#c9c2b4" class="weather-streak"/></g><g class="weather-reaction weather-fair" aria-hidden="true"><rect x="104" y="10" width="6" height="6" fill="#e8b83a" class="weather-glint"/><rect x="101" y="13" width="12" height="2" fill="#efe6d4" class="weather-glint"/><rect x="106" y="8" width="2" height="12" fill="#efe6d4" class="weather-glint"/><rect x="18" y="18" width="4" height="4" fill="#e0a63a" class="weather-glint"/></g></svg>
