<svg xmlns="http://www.w3.org/2000/svg" viewBox="0 0 64 64" shape-rendering="crispEdges" data-level="1">
  <title>Торговый двор</title>
  <style>
    svg[data-level="1"] .lvl2, svg[data-level="1"] .lvl3, svg[data-level="1"] .lvl4, svg[data-level="1"] .lvl5,
    svg[data-level="2"] .lvl3, svg[data-level="2"] .lvl4, svg[data-level="2"] .lvl5,
    svg[data-level="3"] .lvl4, svg[data-level="3"] .lvl5,
    svg[data-level="4"] .lvl5 { display: none }
  </style>

  <rect x="0" y="54" width="64" height="2" fill="#565656"/>
  <rect x="0" y="56" width="64" height="6" fill="#8f8f8f"/>
  <rect x="8" y="58" width="2" height="2" fill="#6e6e6e"/>
  <rect x="30" y="58" width="2" height="2" fill="#6e6e6e"/>
  <rect x="54" y="58" width="2" height="2" fill="#6e6e6e"/>

  <rect x="6" y="18" width="52" height="36" fill="#262626"/>
  <rect x="8" y="20" width="48" height="6" fill="#b07c42"/>
  <rect x="8" y="26" width="48" height="28" fill="#9a6a38"/>
  <rect x="8" y="28" width="48" height="2" fill="#b07c42"/>

  <rect x="14" y="30" width="10" height="24" fill="#6f4a24"/>
  <rect x="14" y="30" width="2" height="2" fill="#9a6a38"/>
  <rect x="22" y="30" width="2" height="2" fill="#9a6a38"/>
  <rect x="28" y="30" width="10" height="24" fill="#6f4a24"/>
  <rect x="28" y="30" width="2" height="2" fill="#9a6a38"/>
  <rect x="36" y="30" width="2" height="2" fill="#9a6a38"/>
  <rect x="42" y="30" width="10" height="24" fill="#6f4a24"/>
  <rect x="42" y="30" width="2" height="2" fill="#9a6a38"/>
  <rect x="50" y="30" width="2" height="2" fill="#9a6a38"/>

  <rect x="2" y="12" width="60" height="8" fill="#262626"/>
  <rect x="4" y="14" width="56" height="2" fill="#cf3c3c"/>
  <rect x="4" y="16" width="56" height="2" fill="#c03434"/>

  <rect x="22" y="4" width="20" height="8" fill="#262626"/>
  <rect x="24" y="6" width="16" height="4" fill="#b07c42"/>
  <rect x="30" y="6" width="4" height="4" fill="#e0a63a"/>

  <g class="lvl2">
    <rect x="14" y="32" width="10" height="14" fill="#262626"/>
    <rect x="16" y="34" width="6" height="10" fill="#b07c42"/>
    <rect x="16" y="36" width="2" height="2" fill="#565656"/>
    <rect x="20" y="36" width="2" height="2" fill="#565656"/>
    <rect x="18" y="40" width="2" height="2" fill="#565656"/>
    <rect x="20" y="40" width="2" height="2" fill="#565656"/>
  </g>

  <g class="lvl3">
    <rect x="42" y="52" width="10" height="2" fill="#262626"/>
    <rect x="42" y="46" width="4" height="2" fill="#e8b83a"/>
    <rect x="42" y="48" width="4" height="2" fill="#e0a63a"/>
    <rect x="42" y="50" width="4" height="2" fill="#e8b83a"/>
    <rect x="48" y="48" width="4" height="2" fill="#e8b83a"/>
    <rect x="48" y="50" width="4" height="2" fill="#e0a63a"/>
    <rect x="46" y="52" width="2" height="2" fill="#e0a63a"/>
  </g>

  <g class="lvl4">
    <rect x="22" y="42" width="20" height="12" fill="#262626"/>
    <rect x="26" y="42" width="12" height="2" fill="#b07c42"/>
    <rect x="24" y="44" width="16" height="2" fill="#b07c42"/>
    <rect x="24" y="46" width="16" height="8" fill="#9a6a38"/>
    <rect x="28" y="44" width="2" height="10" fill="#565656"/>
    <rect x="34" y="44" width="2" height="10" fill="#565656"/>
    <rect x="30" y="48" width="4" height="2" fill="#e0a63a"/>
  </g>

  <g class="lvl5">
    <rect x="8" y="20" width="48" height="2" fill="#e8b83a"/>
    <rect x="24" y="6" width="16" height="4" fill="#e8b83a"/>
    <rect x="30" y="6" width="4" height="4" fill="#e0a63a"/>
    <rect x="26" y="8" width="2" height="2" fill="#e0a63a"/>
    <rect x="36" y="8" width="2" height="2" fill="#e0a63a"/>
    <rect x="8" y="28" width="2" height="2" fill="#e8b83a"/>
    <rect x="54" y="28" width="2" height="2" fill="#e8b83a"/>
  </g>
</svg>
