<svg xmlns="http://www.w3.org/2000/svg" viewBox="0 0 128 128" shape-rendering="crispEdges" data-level="1" data-size="128">
  <title>Мельница</title>
  <style>svg[data-level="1"] .lvl2,svg[data-level="1"] .lvl3,svg[data-level="1"] .lvl4,svg[data-level="1"] .lvl5,svg[data-level="2"] .lvl3,svg[data-level="2"] .lvl4,svg[data-level="2"] .lvl5,svg[data-level="3"] .lvl4,svg[data-level="3"] .lvl5,svg[data-level="4"] .lvl5{display:none}</style>
  <rect x="4" y="104" width="120" height="4" fill="#4b5156"/><rect x="0" y="108" width="128" height="16" fill="#92999e"/>
  <rect x="44" y="40" width="40" height="64" fill="#24282d"/><rect x="48" y="44" width="32" height="60" fill="#b98246"/><rect x="52" y="56" width="12" height="16" fill="#4e83bd"/><rect x="68" y="56" width="8" height="8" fill="#4e83bd"/>
  <path d="M40 44h48L64 20z" fill="#704925"/><rect x="60" y="12" width="8" height="16" fill="#5d9991"/>
  <circle cx="28" cy="62" r="8" fill="#24282d"/><path d="M28 54V20M36 62h34M28 70v34M20 62H4" stroke="#e8b83a" stroke-width="8"/><path d="M28 54V20M36 62h34M28 70v34M20 62H4" stroke="#cf3c3c" stroke-width="4"/>
  <g class="lvl2"><rect x="88" y="64" width="28" height="40" fill="#24282d"/><rect x="92" y="68" width="20" height="32" fill="#986638"/></g>
  <g class="lvl3"><rect x="16" y="88" width="20" height="16" fill="#565656"/><circle cx="26" cy="96" r="6" fill="#8f8f8f"/></g>
  <g class="lvl4"><rect x="48" y="48" width="12" height="4" fill="#e8b83a"/><rect x="68" y="48" width="8" height="4" fill="#e8b83a"/></g>
  <g class="lvl5"><rect x="44" y="36" width="40" height="4" fill="#e8b83a"/></g>
</svg>
