<svg xmlns="http://www.w3.org/2000/svg" viewBox="0 0 64 64" shape-rendering="crispEdges" data-level="1">
  <title>Сторожка</title>
  <style>
    svg[data-level="1"] .lvl2, svg[data-level="1"] .lvl3, svg[data-level="1"] .lvl4, svg[data-level="1"] .lvl5,
    svg[data-level="2"] .lvl3, svg[data-level="2"] .lvl4, svg[data-level="2"] .lvl5,
    svg[data-level="3"] .lvl4, svg[data-level="3"] .lvl5,
    svg[data-level="4"] .lvl5 { display: none }
  </style>

  <rect x="0" y="54" width="64" height="2" fill="#565656"/>
  <rect x="0" y="56" width="64" height="6" fill="#8f8f8f"/>
  <rect x="6" y="58" width="2" height="2" fill="#6e6e6e"/>
  <rect x="28" y="58" width="2" height="2" fill="#6e6e6e"/>
  <rect x="50" y="58" width="2" height="2" fill="#6e6e6e"/>

  <rect x="40" y="20" width="2" height="34" fill="#6f4a24"/>
  <rect x="54" y="20" width="2" height="34" fill="#6f4a24"/>
  <rect x="42" y="32" width="12" height="2" fill="#6f4a24"/>
  <rect x="42" y="44" width="12" height="2" fill="#6f4a24"/>

  <rect x="6" y="34" width="28" height="20" fill="#262626"/>
  <rect x="8" y="36" width="24" height="4" fill="#b07c42"/>
  <rect x="8" y="40" width="24" height="12" fill="#9a6a38"/>
  <rect x="4" y="28" width="32" height="6" fill="#262626"/>
  <rect x="6" y="30" width="28" height="2" fill="#6f4a24"/>

  <rect x="12" y="42" width="8" height="10" fill="#262626"/>
  <rect x="14" y="44" width="4" height="8" fill="#6f4a24"/>
  <rect x="24" y="40" width="6" height="6" fill="#262626"/>
  <rect x="26" y="42" width="2" height="2" fill="#4a7ab5"/>

  <rect x="36" y="8" width="24" height="14" fill="#262626"/>
  <rect x="38" y="10" width="20" height="4" fill="#6f4a24"/>
  <rect x="38" y="14" width="20" height="6" fill="#9a6a38"/>
  <rect x="42" y="10" width="2" height="4" fill="#9a6a38"/>
  <rect x="48" y="10" width="2" height="4" fill="#9a6a38"/>
  <rect x="54" y="10" width="2" height="4" fill="#9a6a38"/>

  <rect x="34" y="2" width="28" height="6" fill="#262626"/>
  <rect x="36" y="4" width="24" height="2" fill="#c03434"/>
  <rect x="48" y="0" width="2" height="6" fill="#6f4a24"/>

  <rect x="34" y="22" width="2" height="32" fill="#6f4a24"/>
  <rect x="38" y="22" width="2" height="32" fill="#6f4a24"/>
  <rect x="34" y="26" width="6" height="2" fill="#9a6a38"/>
  <rect x="34" y="32" width="6" height="2" fill="#9a6a38"/>
  <rect x="34" y="38" width="6" height="2" fill="#9a6a38"/>
  <rect x="34" y="44" width="6" height="2" fill="#9a6a38"/>
  <rect x="34" y="50" width="6" height="2" fill="#9a6a38"/>

  <g class="lvl2">
    <rect x="20" y="46" width="14" height="6" fill="#262626"/>
    <rect x="22" y="48" width="10" height="2" fill="#efe6d4"/>
    <rect x="22" y="50" width="10" height="2" fill="#e8c9a2"/>
    <rect x="20" y="48" width="2" height="4" fill="#c99e6f"/>
    <rect x="32" y="48" width="2" height="4" fill="#c99e6f"/>
    <rect x="26" y="48" width="2" height="2" fill="#c03434"/>
  </g>

  <g class="lvl3">
    <rect x="42" y="42" width="10" height="12" fill="#262626"/>
    <rect x="44" y="44" width="6" height="2" fill="#c03434"/>
    <rect x="44" y="46" width="6" height="6" fill="#6f4a24"/>
    <rect x="44" y="46" width="6" height="2" fill="#9a6a38"/>
    <rect x="46" y="50" width="2" height="2" fill="#e0a63a"/>
  </g>

  <g class="lvl4">
    <rect x="34" y="20" width="2" height="2" fill="#262626"/>
    <rect x="30" y="22" width="8" height="12" fill="#262626"/>
    <rect x="32" y="24" width="4" height="2" fill="#565656"/>
    <rect x="32" y="26" width="4" height="6" fill="#e8b83a"/>
    <rect x="32" y="30" width="4" height="2" fill="#e0a63a"/>
    <rect x="32" y="32" width="4" height="2" fill="#565656"/>
  </g>

  <g class="lvl5">
    <rect x="36" y="4" width="24" height="2" fill="#e8b83a"/>
    <rect x="38" y="14" width="20" height="2" fill="#e8b83a"/>
    <rect x="38" y="2" width="22" height="2" fill="#e8b83a"/>
    <rect x="56" y="0" width="2" height="6" fill="#e8b83a"/>
    <rect x="54" y="2" width="2" height="2" fill="#e0a63a"/>
    <rect x="38" y="0" width="2" height="6" fill="#e0a63a"/>
  </g>
</svg>
