<svg xmlns="http://www.w3.org/2000/svg" viewBox="0 0 128 128" shape-rendering="crispEdges" data-level="1" data-size="128" data-working="false" data-motion="on" role="img" aria-labelledby="sheepfold-title sheepfold-desc" focusable="false" preserveAspectRatio="xMidYMid meet" color-interpolation="sRGB" data-active="true" data-state="idle" data-animation-profile="structure" style="--asset-phase:-0.74s">
  <title id="sheepfold-title">Овчарня</title>
  <desc id="sheepfold-desc">Низкий загон с навесом для овец. Уровни 1–5 добавляют и увеличивают отару. Поддерживаются состояния idle, selected, attention, pressed, disabled и режимы motion on, slow, fast, paused, off.</desc>
  <style>svg[data-level="1"] .lvl2,svg[data-level="1"] .lvl3,svg[data-level="1"] .lvl4,svg[data-level="1"] .lvl5,svg[data-level="2"] .lvl3,svg[data-level="2"] .lvl4,svg[data-level="2"] .lvl5,svg[data-level="3"] .lvl4,svg[data-level="3"] .lvl5,svg[data-level="4"] .lvl5{display:none}.micro{}.tiny{}svg[data-size="64"] .tiny,svg[data-size="32"] .tiny{display:none}svg[data-size="32"] .micro{display:none}</style>
  <style>svg{--domiki-work-speed:3.2s;--asset-loop:4.8s;--asset-accent-loop:3.6s;--asset-fx-loop:3.2s;--asset-phase:-.6s;--asset-step:1px;--asset-neg-step:-1px;--asset-double-step:2px;--asset-neg-double-step:-2px;overflow:hidden}.asset-stage,.asset-fx,.asset-fx *{transform-box:fill-box;transform-origin:center}.asset-fx,.asset-fx *{pointer-events:none}svg[data-motion="on"][data-active="true"] .profile-grounded{animation:asset-enter .32s steps(4,end) both,asset-grounded var(--asset-loop) steps(1,end) var(--asset-phase) infinite}.asset-accent{transform-box:fill-box;transform-origin:center}svg[data-motion="on"][data-active="true"] .asset-accent{animation:asset-accent var(--asset-accent-loop) steps(1,end) var(--asset-local-phase,-.4s) infinite}.asset-phase-1{--asset-local-phase:-.45s}.asset-phase-2{--asset-local-phase:-1.15s}.asset-phase-3{--asset-local-phase:-2.05s}.asset-phase-4{--asset-local-phase:-2.8s}@keyframes asset-enter{0%{opacity:0;transform:translateY(2px)}66%{opacity:1;transform:translateY(-1px)}100%{opacity:1;transform:translateY(0)}}@keyframes asset-grounded{0%,78%,100%{opacity:1}82%{opacity:.97}86%{opacity:1}}@keyframes asset-accent{0%,42%,58%,100%{opacity:1}46%{opacity:.7}50%{opacity:1}54%{opacity:.84}}</style>
  <style>.work-state{display:none}.work-animated{transform-box:fill-box;transform-origin:center;animation-timing-function:steps(1,end);animation-iteration-count:infinite;animation-fill-mode:both}svg[data-working="true"] .work-state,svg[data-working="1"] .work-state{display:inline;animation:domiki-work-reveal 180ms steps(2,end) both}svg[data-working="true"] .work-animated,svg[data-working="1"] .work-animated{will-change:transform,opacity}.work-state .logic-sheepfold-gate{animation-name:domiki-sheepfold-gate;animation-duration:var(--domiki-work-speed)}.work-state .logic-sheepfold-wool{animation-name:domiki-sheepfold-wool;animation-duration:var(--domiki-work-speed)}@keyframes domiki-work-reveal{0%{opacity:0}50%,100%{opacity:1}}@keyframes domiki-sheepfold-gate{0%,28%,100%{transform:translateX(0)}34%,56%{transform:translateX(8px)}62%{transform:translateX(0)}}@keyframes domiki-sheepfold-wool{0%,36%,100%{opacity:0;transform:translateY(0)}42%,62%{opacity:1;transform:translateY(-4px)}70%{opacity:0;transform:translateY(-8px)}}.fx-semantic,.fx-selection,.fx-attention{display:none}.fx-glint{opacity:0}svg[data-motion="on"][data-active="true"] .fx-glint{animation:fx-glint var(--asset-fx-loop) steps(1,end) var(--asset-fx-phase,-.5s) infinite}@keyframes fx-glint{0%,52%,100%{opacity:0}56%,64%{opacity:1}68%{opacity:0}}svg[data-state="selected"] .fx-selection{display:inline;animation:asset-selected 1.2s steps(1,end) infinite}svg[data-state="attention"] .fx-attention{display:inline;animation:asset-attention 1s steps(1,end) infinite}@keyframes asset-selected{0%,100%{opacity:1}50%{opacity:.55}}@keyframes asset-attention{0%,32%,100%{opacity:0}36%,68%{opacity:1}72%{opacity:0}}</style>
  <style>svg[data-state="pressed"] .asset-stage{animation:none!important;transform:translateY(var(--asset-step))}svg[data-state="disabled"] .asset-stage,svg[data-state="disabled"] .asset-fx{animation:none!important;filter:saturate(.25);opacity:.58}svg[data-state="hidden"] .asset-stage,svg[data-state="hidden"] .asset-fx{visibility:hidden}svg:hover:not([data-state="disabled"]) .asset-stage{animation:asset-hover .26s steps(3,end) both}@keyframes asset-hover{0%{transform:translateY(0)}60%{transform:translateY(var(--asset-neg-step))}100%{transform:translateY(0)}}svg[data-motion="slow"]{--domiki-work-speed:4.8s;--asset-loop:6.8s;--asset-accent-loop:5.2s;--asset-fx-loop:4.8s}svg[data-motion="fast"]{--domiki-work-speed:1.9s;--asset-loop:3.1s;--asset-accent-loop:2.4s;--asset-fx-loop:2s}svg[data-motion="paused"] *,svg[data-motion="paused"] .asset-stage{animation-play-state:paused!important}svg[data-motion="off"] *,svg[data-motion="off"] .asset-stage{animation:none!important}svg[data-size="32"] .fx-minor{display:none}svg[data-motion="on"][data-active="false"] .asset-stage,svg[data-motion="on"][data-active="false"] .asset-fx *{animation:none!important}@media (prefers-reduced-motion:reduce){.asset-stage,.asset-fx *,.asset-accent,.work-animated,.work-state{animation:none!important;transform:none!important}.fx-semantic,.fx-attention{display:none!important}}</style><style>svg[data-animation-profile="structure"] .asset-accent{--asset-accent-loop:4.4s}svg[data-animation-profile="wealth"] .fx-glint,svg[data-animation-profile="badge"] .fx-glint{--asset-fx-loop:2.8s}</style>
  <g class="asset-stage profile-grounded">
    <rect x="8" y="104" width="112" height="4" fill="#565656"/><rect x="0" y="108" width="128" height="4" fill="#565656"/><rect x="0" y="112" width="128" height="12" fill="#8f8f8f"/><rect x="20" y="116" width="4" height="4" fill="#6e6e6e"/><rect x="64" y="116" width="4" height="4" fill="#6e6e6e"/><rect x="100" y="116" width="4" height="4" fill="#6e6e6e"/>
    <rect x="56" y="44" width="52" height="52" fill="#262626"/><rect x="60" y="48" width="44" height="48" fill="#b07c42"/><rect x="56" y="40" width="56" height="12" fill="#262626"/><rect x="60" y="36" width="48" height="12" fill="#c03434"/><rect x="64" y="32" width="40" height="4" fill="#c03434"/><rect x="64" y="56" width="36" height="4" fill="#9a6a38"/><rect x="68" y="72" width="20" height="24" fill="#262626"/><rect x="72" y="76" width="12" height="20" fill="#6f4a24"/>
    <rect x="12" y="76" width="48" height="8" fill="#262626"/><rect x="16" y="80" width="40" height="4" fill="#b07c42"/><rect x="12" y="84" width="4" height="24" fill="#6f4a24"/><rect x="28" y="84" width="4" height="24" fill="#6f4a24"/><rect x="44" y="84" width="4" height="24" fill="#6f4a24"/><rect x="56" y="84" width="4" height="24" fill="#6f4a24"/><rect x="12" y="100" width="48" height="4" fill="#6f4a24"/>
    <rect x="24" y="84" width="24" height="16" fill="#262626"/><rect x="28" y="80" width="16" height="20" fill="#efe6d4"/><rect x="20" y="88" width="8" height="8" fill="#efe6d4"/><rect x="44" y="88" width="8" height="8" fill="#efe6d4"/><rect x="28" y="96" width="4" height="8" fill="#262626"/><rect x="40" y="96" width="4" height="8" fill="#262626"/><rect x="20" y="84" width="4" height="4" fill="#443528"/>
    <g class="micro"><rect x="64" y="64" width="8" height="8" fill="#4a7ab5"/><rect x="88" y="64" width="8" height="8" fill="#4a7ab5"/><rect x="16" y="88" width="4" height="4" fill="#c9c2b4" class="asset-accent asset-phase-1"/></g>
    <g class="tiny"><rect x="100" y="40" width="4" height="4" fill="#e8b83a" class="asset-accent asset-phase-3"/></g>
    <g class="lvl2"><rect x="48" y="88" width="24" height="16" fill="#262626"/><rect x="52" y="84" width="16" height="20" fill="#efe6d4"/><rect x="44" y="92" width="8" height="8" fill="#efe6d4"/><rect x="68" y="92" width="8" height="8" fill="#efe6d4"/><rect x="52" y="100" width="4" height="8" fill="#262626"/><rect x="64" y="100" width="4" height="8" fill="#262626"/><rect x="44" y="88" width="4" height="4" fill="#443528"/></g>
    <g class="lvl3"><rect x="14" y="60" width="4" height="20" fill="#6f4a24"/><rect x="10" y="56" width="16" height="8" fill="#c03434"/><rect x="12" y="60" width="12" height="4" fill="#efe6d4"/><rect x="80" y="88" width="20" height="16" fill="#262626"/><rect x="84" y="84" width="12" height="20" fill="#efe6d4"/><rect x="76" y="92" width="8" height="8" fill="#efe6d4"/><rect x="96" y="92" width="8" height="8" fill="#efe6d4"/><rect x="84" y="100" width="4" height="8" fill="#262626"/><rect x="92" y="100" width="4" height="8" fill="#262626"/><rect x="76" y="88" width="4" height="4" fill="#443528"/></g>
    <g class="lvl4"><rect x="32" y="60" width="4" height="20" fill="#6f4a24"/><rect x="28" y="56" width="16" height="8" fill="#4f9a3c"/><rect x="30" y="60" width="12" height="4" fill="#efe6d4"/><rect x="92" y="72" width="12" height="16" fill="#262626"/><rect x="96" y="68" width="8" height="20" fill="#efe6d4"/><rect x="88" y="76" width="8" height="8" fill="#efe6d4"/><rect x="100" y="84" width="4" height="8" fill="#262626"/><rect x="88" y="72" width="4" height="4" fill="#443528"/></g>
    <g class="lvl5"><rect x="104" y="44" width="4" height="28" fill="#6f4a24"/><rect x="100" y="40" width="12" height="8" fill="#e8b83a"/><rect x="96" y="44" width="20" height="4" fill="#e8b83a"/><rect x="100" y="48" width="12" height="12" fill="#262626"/><rect x="104" y="52" width="4" height="8" fill="#e8b83a"/></g>
    <g class="work-state" aria-hidden="true"><g class="work-animated logic-sheepfold-gate"><rect x="16" y="84" width="12" height="4" fill="#6f4a24"/><rect x="20" y="88" width="4" height="16" fill="#6f4a24"/></g><g class="work-animated logic-sheepfold-wool"><rect x="76" y="68" width="8" height="8" fill="#efe6d4"/><rect x="80" y="64" width="4" height="4" fill="#c9c2b4"/></g></g>
  </g>
  <g class="asset-fx fx-semantic" aria-hidden="true"><g class="fx-glint"><rect x="108" y="32" width="4" height="4" fill="#efe6d4"/><rect x="104" y="36" width="12" height="4" fill="#e8b83a"/></g></g>
  <g class="asset-fx fx-selection" aria-hidden="true"><rect x="4" y="4" width="20" height="4" fill="#e8b83a"/><rect x="4" y="4" width="4" height="20" fill="#e8b83a"/><rect x="104" y="4" width="20" height="4" fill="#e8b83a"/><rect x="120" y="4" width="4" height="20" fill="#e8b83a"/><rect x="4" y="120" width="20" height="4" fill="#e8b83a"/><rect x="4" y="104" width="4" height="20" fill="#e8b83a"/><rect x="104" y="120" width="20" height="4" fill="#e8b83a"/><rect x="120" y="104" width="4" height="20" fill="#e8b83a"/></g>
  <g class="asset-fx fx-attention" aria-hidden="true"><rect x="96" y="12" width="8" height="16" fill="#cf3c3c"/><rect x="88" y="4" width="24" height="8" fill="#e8b83a"/><rect x="96" y="28" width="8" height="8" fill="#efe6d4"/></g>
</svg>
