<svg data-weather="clear" xmlns="http://www.w3.org/2000/svg" viewBox="0 0 128 128" shape-rendering="crispEdges" data-size="128" data-level="1" data-working="false" data-active="true" data-state="idle" data-motion="on" role="img" aria-labelledby="tavern-title tavern-desc" focusable="false" preserveAspectRatio="xMidYMid meet" color-interpolation="sRGB"><title id="tavern-title">Таверна</title><desc id="tavern-desc">Широкая постоялая таверна с крутой крышей и трубой. Три уровня добавляют вывеску, лавку, слуховое окно и богатую отделку.</desc><style>
svg{--domiki-work-speed:3.2s;--asset-loop:4.8s;--asset-step:2px;overflow:hidden}.asset-stage,.asset-fx,.asset-fx *{transform-box:fill-box;transform-origin:center}.asset-fx,.asset-fx *{pointer-events:none}
svg[data-motion="on"][data-active="true"] .asset-stage{animation:asset-enter .32s steps(4,end) both,asset-grounded var(--asset-loop) steps(1,end) -.6s infinite}.fx-selection,.fx-attention{display:none}svg[data-state="selected"] .fx-selection{display:inline;animation:asset-pulse 1.2s steps(1,end) infinite}svg[data-state="attention"] .fx-attention{display:inline;animation:asset-attention 1s steps(1,end) infinite}svg[data-state="pressed"] .asset-stage{transform:translateY(2px)}svg[data-state="disabled"] .asset-stage,svg[data-state="disabled"] .asset-fx{filter:saturate(.25);opacity:.58}svg[data-state="hidden"] .asset-stage,svg[data-state="hidden"] .asset-fx{visibility:hidden}svg[data-motion="slow"]{--domiki-work-speed:4.8s;--asset-loop:6.8s}svg[data-motion="fast"]{--domiki-work-speed:1.9s;--asset-loop:3.1s}svg[data-motion="paused"] *{animation-play-state:paused!important}svg[data-motion="off"] *{animation:none!important}@keyframes asset-enter{0%{opacity:0;transform:translateY(4px)}70%{opacity:1;transform:translateY(-2px)}100%{opacity:1;transform:none}}@keyframes asset-grounded{0%,78%,100%{opacity:1}82%{opacity:.97}86%{opacity:1}}@keyframes asset-pulse{0%,100%{opacity:.45}50%{opacity:1}}@keyframes asset-attention{0%,32%,100%{opacity:0}38%,68%{opacity:1}74%{opacity:0}}@media(prefers-reduced-motion:reduce){.asset-stage,.asset-fx *,.work-animated{animation:none!important;transform:none!important}.fx-attention{display:none!important}}
svg[data-level="1"] .lvl2,svg[data-level="1"] .lvl3,svg[data-level="2"] .lvl3{display:none}
.work-state{display:none}svg[data-working="true"] .work-state,svg[data-working="1"] .work-state{display:inline}.smoke-a,.smoke-b{opacity:0}svg[data-working="true"][data-motion="on"] .smoke-a{animation:tavern-smoke var(--domiki-work-speed) steps(3,end) infinite}svg[data-working="true"][data-motion="on"] .smoke-b{animation:tavern-smoke var(--domiki-work-speed) steps(3,end) -.9s infinite}@keyframes tavern-smoke{0%{opacity:0;transform:translateY(4px)}34%,58%{opacity:1}100%{opacity:0;transform:translateY(-8px)}}
</style><g class="asset-stage">
<rect x="8" y="104" width="112" height="4" fill="#565656"/><rect x="0" y="108" width="128" height="4" fill="#565656"/><rect x="0" y="112" width="128" height="12" fill="#8f8f8f"/><rect x="20" y="116" width="4" height="4" fill="#6e6e6e"/><rect x="64" y="116" width="4" height="4" fill="#6e6e6e"/><rect x="104" y="116" width="4" height="4" fill="#6e6e6e"/>
<rect x="24" y="48" width="80" height="56" fill="#262626"/><rect x="28" y="52" width="72" height="52" fill="#b07c42"/><rect x="32" y="58" width="64" height="42" fill="#efe6d4"/><rect x="28" y="78" width="72" height="6" fill="#9a6a38"/>
<rect x="20" y="44" width="88" height="8" fill="#262626"/><rect x="28" y="36" width="72" height="8" fill="#262626"/><rect x="36" y="28" width="56" height="8" fill="#262626"/><rect x="44" y="20" width="40" height="8" fill="#262626"/>
<rect x="24" y="44" width="80" height="4" fill="#c03434"/><rect x="32" y="36" width="64" height="4" fill="#c03434"/><rect x="40" y="28" width="48" height="4" fill="#c03434"/><rect x="48" y="20" width="32" height="4" fill="#c03434"/>
<rect x="78" y="10" width="16" height="30" fill="#262626"/><rect x="82" y="14" width="8" height="24" fill="#565656"/><rect x="76" y="10" width="20" height="6" fill="#262626"/>
<rect x="52" y="78" width="24" height="26" fill="#262626"/><rect x="56" y="82" width="16" height="22" fill="#6f4a24"/><rect x="66" y="90" width="4" height="4" fill="#e8b83a"/>
<rect x="36" y="62" width="14" height="12" fill="#262626"/><rect x="40" y="64" width="8" height="8" fill="#4a7ab5"/><rect x="78" y="62" width="14" height="12" fill="#262626"/><rect x="82" y="64" width="8" height="8" fill="#4a7ab5"/>
<rect x="28" y="84" width="20" height="8" fill="#262626"/><rect x="32" y="86" width="12" height="4" fill="#c03434"/><rect x="80" y="84" width="20" height="8" fill="#262626"/><rect x="84" y="86" width="12" height="4" fill="#c03434"/>
<g class="lvl2"><rect x="104" y="46" width="4" height="36" fill="#6f4a24"/><rect x="100" y="48" width="12" height="4" fill="#262626"/><rect x="108" y="52" width="14" height="20" fill="#262626"/><rect x="110" y="54" width="10" height="16" fill="#e0a63a"/><rect x="112" y="58" width="6" height="4" fill="#efe6d4"/><rect x="110" y="70" width="12" height="4" fill="#6f4a24"/><rect x="16" y="94" width="30" height="4" fill="#6f4a24"/><rect x="20" y="90" width="4" height="14" fill="#6f4a24"/><rect x="38" y="90" width="4" height="14" fill="#6f4a24"/></g>
<g class="lvl3"><rect x="52" y="34" width="24" height="18" fill="#262626"/><rect x="56" y="38" width="16" height="10" fill="#efe6d4"/><rect x="60" y="40" width="8" height="6" fill="#4a7ab5"/><rect x="44" y="18" width="8" height="4" fill="#e8b83a"/><rect x="76" y="18" width="8" height="4" fill="#e8b83a"/><rect x="20" y="78" width="8" height="8" fill="#4f9a3c"/><rect x="100" y="78" width="8" height="8" fill="#4f9a3c"/><rect x="44" y="54" width="40" height="4" fill="#e8b83a"/></g>
<g class="work-state" aria-hidden="true"><g class="smoke-a work-animated"><rect x="84" y="4" width="8" height="6" fill="#c9c2b4"/></g><g class="smoke-b work-animated"><rect x="92" y="2" width="6" height="6" fill="#8f8f8f"/></g></g>
</g><g class="asset-fx fx-selection" aria-hidden="true"><rect x="4" y="4" width="24" height="4" fill="#e8b83a"/><rect x="4" y="4" width="4" height="24" fill="#e8b83a"/><rect x="100" y="4" width="24" height="4" fill="#e8b83a"/><rect x="120" y="4" width="4" height="24" fill="#e8b83a"/><rect x="4" y="120" width="24" height="4" fill="#e8b83a"/><rect x="4" y="100" width="4" height="24" fill="#e8b83a"/><rect x="100" y="120" width="24" height="4" fill="#e8b83a"/><rect x="120" y="100" width="4" height="24" fill="#e8b83a"/></g><g class="asset-fx fx-attention" aria-hidden="true"><rect x="100" y="16" width="8" height="16" fill="#cf3c3c"/><rect x="92" y="8" width="24" height="8" fill="#e8b83a"/><rect x="100" y="32" width="8" height="8" fill="#efe6d4"/></g><!-- postmerge-v5-weather-reaction -->
<style>
.weather-reaction{display:none;pointer-events:none}
svg[data-weather="frost"] .weather-frost,svg[data-weather="rain"] .weather-rain,svg[data-weather="drought"] .weather-drought,svg[data-weather="wind"] .weather-wind,svg[data-weather="fair_day"] .weather-fair{display:inline}
.weather-reaction *{transform-box:fill-box;transform-origin:center}
svg[data-weather="rain"][data-motion="on"] .weather-drop{animation:domiki-weather-rain 1.2s steps(3,end) infinite}
svg[data-weather="wind"][data-motion="on"] .weather-streak{animation:domiki-weather-wind 1.8s steps(3,end) infinite}
svg[data-weather="fair_day"][data-motion="on"] .weather-glint{animation:domiki-weather-glint 2.8s steps(2,end) infinite}
svg[data-weather="drought"][data-motion="on"] .weather-dust{animation:domiki-weather-dust 2.4s steps(2,end) infinite}
@keyframes domiki-weather-rain{0%{opacity:0;transform:translateY(-4px)}34%,68%{opacity:.9}100%{opacity:0;transform:translateY(8px)}}
@keyframes domiki-weather-wind{0%,100%{opacity:0;transform:translateX(-6px)}34%,68%{opacity:.8}100%{transform:translateX(8px)}}
@keyframes domiki-weather-glint{0%,44%,100%{opacity:0}52%,68%{opacity:1}}
@keyframes domiki-weather-dust{0%,100%{opacity:0;transform:translateX(-2px)}50%{opacity:.72;transform:translateX(3px)}}
@media(prefers-reduced-motion:reduce){.weather-reaction *{animation:none!important;transform:none!important}}
</style><g class="weather-reaction weather-frost" aria-hidden="true"><rect x="22" y="34" width="8" height="4" fill="#efe6d4" class="weather-snow-cap"/><rect x="24" y="38" width="6" height="2" fill="#c9c2b4" class="weather-snow-shadow"/><rect x="32" y="26" width="8" height="4" fill="#efe6d4" class="weather-snow-cap"/><rect x="34" y="30" width="6" height="2" fill="#c9c2b4" class="weather-snow-shadow"/><rect x="42" y="18" width="8" height="4" fill="#efe6d4" class="weather-snow-cap"/><rect x="44" y="22" width="6" height="2" fill="#c9c2b4" class="weather-snow-shadow"/><rect x="62" y="18" width="8" height="4" fill="#efe6d4" class="weather-snow-cap"/><rect x="64" y="22" width="6" height="2" fill="#c9c2b4" class="weather-snow-shadow"/><rect x="72" y="8" width="8" height="4" fill="#efe6d4" class="weather-snow-cap"/><rect x="74" y="12" width="6" height="2" fill="#c9c2b4" class="weather-snow-shadow"/><rect x="82" y="8" width="8" height="4" fill="#efe6d4" class="weather-snow-cap"/><rect x="84" y="12" width="6" height="2" fill="#c9c2b4" class="weather-snow-shadow"/><rect x="102" y="42" width="8" height="4" fill="#efe6d4" class="weather-snow-cap"/><rect x="104" y="46" width="6" height="2" fill="#c9c2b4" class="weather-snow-shadow"/><rect x="18" y="112" width="24" height="4" fill="#efe6d4"/><rect x="72" y="108" width="30" height="4" fill="#efe6d4"/></g><g class="weather-reaction weather-rain" aria-hidden="true"><rect x="14" y="18" width="3" height="12" fill="#4a7ab5" class="weather-drop"/><rect x="34" y="10" width="3" height="14" fill="#4a7ab5" class="weather-drop"/><rect x="56" y="20" width="3" height="12" fill="#4a7ab5" class="weather-drop"/><rect x="78" y="12" width="3" height="14" fill="#4a7ab5" class="weather-drop"/><rect x="102" y="18" width="3" height="12" fill="#4a7ab5" class="weather-drop"/><rect x="20" y="108" width="28" height="4" fill="#4a7ab5"/><rect x="70" y="112" width="34" height="4" fill="#4a7ab5"/><rect x="28" y="112" width="12" height="2" fill="#c9c2b4"/></g><g class="weather-reaction weather-drought" aria-hidden="true"><rect x="12" y="104" width="4" height="8" fill="#e0a63a"/><rect x="8" y="106" width="4" height="4" fill="#e0a63a"/><rect x="16" y="102" width="4" height="6" fill="#e0a63a"/><rect x="52" y="106" width="4" height="6" fill="#e0a63a"/><rect x="48" y="104" width="4" height="4" fill="#e0a63a"/><rect x="56" y="102" width="4" height="8" fill="#e0a63a"/><rect x="102" y="104" width="4" height="8" fill="#e0a63a"/><rect x="98" y="106" width="4" height="4" fill="#e0a63a"/><rect x="22" y="114" width="12" height="3" fill="#9a6a38" class="weather-dust"/><rect x="74" y="110" width="16" height="3" fill="#9a6a38" class="weather-dust"/></g><g class="weather-reaction weather-wind" aria-hidden="true"><rect x="4" y="24" width="22" height="3" fill="#c9c2b4" class="weather-streak"/><rect x="10" y="30" width="30" height="3" fill="#efe6d4" class="weather-streak"/><rect x="82" y="46" width="36" height="3" fill="#c9c2b4" class="weather-streak"/><rect x="92" y="52" width="24" height="3" fill="#efe6d4" class="weather-streak"/><rect x="4" y="74" width="28" height="3" fill="#c9c2b4" class="weather-streak"/></g><g class="weather-reaction weather-fair" aria-hidden="true"><rect x="104" y="10" width="6" height="6" fill="#e8b83a" class="weather-glint"/><rect x="101" y="13" width="12" height="2" fill="#efe6d4" class="weather-glint"/><rect x="106" y="8" width="2" height="12" fill="#efe6d4" class="weather-glint"/><rect x="18" y="18" width="4" height="4" fill="#e0a63a" class="weather-glint"/></g></svg>
