<svg xmlns="http://www.w3.org/2000/svg" viewBox="0 0 64 64" shape-rendering="crispEdges" data-level="1">
  <title>Мастерская</title>
  <style>
    svg[data-level="1"] .lvl2, svg[data-level="1"] .lvl3, svg[data-level="1"] .lvl4, svg[data-level="1"] .lvl5,
    svg[data-level="2"] .lvl3, svg[data-level="2"] .lvl4, svg[data-level="2"] .lvl5,
    svg[data-level="3"] .lvl4, svg[data-level="3"] .lvl5,
    svg[data-level="4"] .lvl5 { display: none }
  </style>

  <rect x="0" y="54" width="64" height="2" fill="#565656"/>
  <rect x="0" y="56" width="64" height="6" fill="#8f8f8f"/>
  <rect x="8" y="58" width="2" height="2" fill="#6e6e6e"/>
  <rect x="30" y="58" width="2" height="2" fill="#6e6e6e"/>
  <rect x="50" y="58" width="2" height="2" fill="#6e6e6e"/>

  <rect x="12" y="30" width="40" height="24" fill="#262626"/>
  <rect x="14" y="32" width="36" height="6" fill="#b07c42"/>
  <rect x="14" y="38" width="36" height="14" fill="#9a6a38"/>

  <rect x="26" y="12" width="12" height="18" fill="#262626"/>
  <rect x="20" y="16" width="24" height="14" fill="#262626"/>
  <rect x="14" y="20" width="36" height="10" fill="#262626"/>
  <rect x="8" y="24" width="48" height="6" fill="#262626"/>
  <rect x="28" y="14" width="8" height="16" fill="#d88a1b"/>
  <rect x="22" y="18" width="20" height="12" fill="#d88a1b"/>
  <rect x="16" y="22" width="32" height="8" fill="#d88a1b"/>
  <rect x="10" y="26" width="44" height="4" fill="#d88a1b"/>

  <rect x="18" y="38" width="12" height="16" fill="#262626"/>
  <rect x="20" y="40" width="8" height="12" fill="#6f4a24"/>
  <rect x="36" y="36" width="12" height="12" fill="#262626"/>
  <rect x="38" y="38" width="8" height="8" fill="#4a7ab5"/>

  <g class="lvl2">
    <rect x="48" y="38" width="12" height="4" fill="#9a6a38"/>
    <rect x="50" y="42" width="2" height="12" fill="#6f4a24"/>
    <rect x="56" y="42" width="2" height="12" fill="#6f4a24"/>
    <rect x="50" y="34" width="6" height="4" fill="#565656"/>
    <rect x="52" y="32" width="2" height="2" fill="#565656"/>
  </g>

  <g class="lvl3">
    <rect x="2" y="40" width="10" height="10" fill="#262626"/>
    <rect x="4" y="42" width="6" height="6" fill="#8f8f8f"/>
    <rect x="6" y="44" width="2" height="2" fill="#6f4a24"/>
    <rect x="2" y="50" width="2" height="4" fill="#6f4a24"/>
    <rect x="8" y="50" width="2" height="4" fill="#6f4a24"/>
  </g>

  <g class="lvl4">
    <rect x="10" y="38" width="6" height="2" fill="#6f4a24"/>
    <rect x="10" y="46" width="6" height="2" fill="#6f4a24"/>
    <rect x="8" y="40" width="2" height="6" fill="#6f4a24"/>
    <rect x="16" y="40" width="2" height="6" fill="#6f4a24"/>
    <rect x="12" y="42" width="2" height="2" fill="#9a6a38"/>
  </g>

  <g class="lvl5">
    <rect x="10" y="28" width="44" height="2" fill="#e8b83a"/>
    <rect x="32" y="8" width="2" height="4" fill="#6f4a24"/>
    <rect x="24" y="4" width="4" height="2" fill="#e8b83a"/>
    <rect x="28" y="4" width="8" height="4" fill="#e8b83a"/>
    <rect x="36" y="2" width="2" height="4" fill="#e8b83a"/>
    <rect x="38" y="4" width="2" height="2" fill="#e8b83a"/>
  </g>
</svg>
