<svg xmlns="http://www.w3.org/2000/svg" viewBox="0 0 64 64" shape-rendering="crispEdges" data-level="1">
  <title>Мост через реку</title>
  <style>
    svg[data-level="1"] .lvl2, svg[data-level="1"] .lvl3, svg[data-level="1"] .lvl4, svg[data-level="1"] .lvl5,
    svg[data-level="2"] .lvl3, svg[data-level="2"] .lvl4, svg[data-level="2"] .lvl5,
    svg[data-level="3"] .lvl4, svg[data-level="3"] .lvl5,
    svg[data-level="4"] .lvl5 { display: none }
  </style>

  <rect x="0" y="54" width="18" height="2" fill="#565656"/>
  <rect x="46" y="54" width="18" height="2" fill="#565656"/>
  <rect x="0" y="56" width="18" height="6" fill="#8f8f8f"/>
  <rect x="46" y="56" width="18" height="6" fill="#8f8f8f"/>
  <rect x="6" y="58" width="2" height="2" fill="#6e6e6e"/>
  <rect x="54" y="58" width="2" height="2" fill="#6e6e6e"/>
  <rect x="18" y="54" width="28" height="8" fill="#4a7ab5"/>
  <rect x="22" y="56" width="4" height="2" fill="#efe6d4"/>
  <rect x="36" y="58" width="4" height="2" fill="#efe6d4"/>

  <rect x="20" y="42" width="4" height="18" fill="#6f4a24"/>
  <rect x="40" y="42" width="4" height="18" fill="#6f4a24"/>
  <rect x="8" y="42" width="48" height="8" fill="#262626"/>
  <rect x="10" y="44" width="44" height="4" fill="#9a6a38"/>

  <rect x="2" y="50" width="12" height="4" fill="#9a6a38"/>
  <rect x="2" y="50" width="2" height="4" fill="#b07c42"/>

  <g class="lvl2">
    <rect x="10" y="34" width="44" height="2" fill="#6f4a24"/>
    <rect x="12" y="36" width="2" height="8" fill="#6f4a24"/>
    <rect x="22" y="36" width="2" height="8" fill="#6f4a24"/>
    <rect x="32" y="36" width="2" height="8" fill="#6f4a24"/>
    <rect x="42" y="36" width="2" height="8" fill="#6f4a24"/>
    <rect x="50" y="36" width="2" height="8" fill="#6f4a24"/>
  </g>

  <g class="lvl3">
    <rect x="8" y="24" width="2" height="18" fill="#6f4a24"/>
    <rect x="6" y="20" width="6" height="4" fill="#e0a63a"/>
    <rect x="54" y="24" width="2" height="18" fill="#6f4a24"/>
    <rect x="52" y="20" width="6" height="4" fill="#e0a63a"/>
  </g>

  <g class="lvl4">
    <rect x="30" y="22" width="2" height="12" fill="#6f4a24"/>
    <rect x="32" y="22" width="6" height="4" fill="#cf3c3c"/>
  </g>

  <g class="lvl5">
    <rect x="10" y="44" width="44" height="2" fill="#e8b83a"/>
    <rect x="6" y="20" width="6" height="4" fill="#e8b83a"/>
    <rect x="52" y="20" width="6" height="4" fill="#e8b83a"/>
  </g>
</svg>
