<svg xmlns="http://www.w3.org/2000/svg" viewBox="0 0 128 128" shape-rendering="crispEdges" data-size="128" data-level="1" data-working="false" data-active="true" data-state="idle" data-motion="on" role="img" aria-labelledby="caravan-title caravan-desc" focusable="false" preserveAspectRatio="xMidYMid meet" color-interpolation="sRGB"><title id="caravan-title">Стройка-караван</title><desc id="caravan-desc">Пятистадийная стройка каравана: рама, груз, кузов с тентом, выносные стойки со знаменем и богатая золотая отделка.</desc><style>
svg{--domiki-work-speed:3.2s;--asset-loop:4.8s;--asset-step:2px;overflow:hidden}.asset-stage,.asset-fx,.asset-fx *{transform-box:fill-box;transform-origin:center}.asset-fx,.asset-fx *{pointer-events:none}
svg[data-motion="on"][data-active="true"] .asset-stage{animation:asset-enter .32s steps(4,end) both,asset-grounded var(--asset-loop) steps(1,end) -.6s infinite}.fx-selection,.fx-attention{display:none}svg[data-state="selected"] .fx-selection{display:inline;animation:asset-pulse 1.2s steps(1,end) infinite}svg[data-state="attention"] .fx-attention{display:inline;animation:asset-attention 1s steps(1,end) infinite}svg[data-state="pressed"] .asset-stage{transform:translateY(2px)}svg[data-state="disabled"] .asset-stage,svg[data-state="disabled"] .asset-fx{filter:saturate(.25);opacity:.58}svg[data-state="hidden"] .asset-stage,svg[data-state="hidden"] .asset-fx{visibility:hidden}svg[data-motion="slow"]{--domiki-work-speed:4.8s;--asset-loop:6.8s}svg[data-motion="fast"]{--domiki-work-speed:1.9s;--asset-loop:3.1s}svg[data-motion="paused"] *{animation-play-state:paused!important}svg[data-motion="off"] *{animation:none!important}@keyframes asset-enter{0%{opacity:0;transform:translateY(4px)}70%{opacity:1;transform:translateY(-2px)}100%{opacity:1;transform:none}}@keyframes asset-grounded{0%,78%,100%{opacity:1}82%{opacity:.97}86%{opacity:1}}@keyframes asset-pulse{0%,100%{opacity:.45}50%{opacity:1}}@keyframes asset-attention{0%,32%,100%{opacity:0}38%,68%{opacity:1}74%{opacity:0}}@media(prefers-reduced-motion:reduce){.asset-stage,.asset-fx *,.work-animated{animation:none!important;transform:none!important}.fx-attention{display:none!important}}
svg[data-level="1"] .lvl2,svg[data-level="1"] .lvl3,svg[data-level="1"] .lvl4,svg[data-level="1"] .lvl5,svg[data-level="2"] .lvl3,svg[data-level="2"] .lvl4,svg[data-level="2"] .lvl5,svg[data-level="3"] .lvl4,svg[data-level="3"] .lvl5,svg[data-level="4"] .lvl5{display:none}
.work-state{display:none}svg[data-working="true"] .work-state,svg[data-working="1"] .work-state{display:inline}.logic-caravan-hammer{transform-box:fill-box;transform-origin:bottom left}svg[data-working="true"][data-motion="on"] .logic-caravan-hammer{animation:caravan-hammer var(--domiki-work-speed) steps(2,end) infinite}@keyframes caravan-hammer{0%,100%{transform:translateY(0)}50%{transform:translateY(4px)}}
</style><g class="asset-stage">
<rect x="8" y="104" width="112" height="4" fill="#565656"/><rect x="0" y="108" width="128" height="4" fill="#565656"/><rect x="0" y="112" width="128" height="12" fill="#8f8f8f"/><rect x="18" y="116" width="6" height="4" fill="#6e6e6e"/><rect x="72" y="116" width="6" height="4" fill="#6e6e6e"/><rect x="108" y="116" width="4" height="4" fill="#6e6e6e"/>
<rect x="18" y="82" width="82" height="16" fill="#262626"/><rect x="22" y="86" width="74" height="8" fill="#b07c42"/><rect x="96" y="86" width="26" height="6" fill="#6f4a24"/><rect x="110" y="92" width="10" height="4" fill="#6f4a24"/>
<rect x="22" y="92" width="28" height="24" fill="#262626"/><rect x="28" y="98" width="16" height="12" fill="#c9c2b4"/><rect x="68" y="92" width="28" height="24" fill="#262626"/><rect x="74" y="98" width="16" height="12" fill="#c9c2b4"/>
<g class="lvl2"><rect x="28" y="64" width="24" height="18" fill="#262626"/><rect x="32" y="68" width="16" height="14" fill="#9a6a38"/><rect x="54" y="60" width="26" height="22" fill="#262626"/><rect x="58" y="64" width="18" height="18" fill="#b07c42"/><rect x="82" y="68" width="14" height="14" fill="#262626"/><rect x="86" y="72" width="10" height="10" fill="#5d9991"/></g>
<g class="lvl3"><rect x="24" y="50" width="74" height="34" fill="#262626"/><rect x="28" y="54" width="66" height="26" fill="#b07c42"/><rect x="34" y="58" width="12" height="16" fill="#4a7ab5"/><rect x="76" y="58" width="12" height="16" fill="#4a7ab5"/><rect x="54" y="60" width="16" height="20" fill="#6f4a24"/>
<rect x="28" y="42" width="66" height="12" fill="#262626"/><rect x="34" y="36" width="54" height="10" fill="#262626"/><rect x="42" y="30" width="38" height="10" fill="#262626"/><rect x="32" y="46" width="58" height="6" fill="#c03434"/><rect x="38" y="40" width="46" height="6" fill="#c03434"/><rect x="46" y="34" width="30" height="6" fill="#c03434"/></g>
<g class="lvl4"><rect x="16" y="54" width="12" height="30" fill="#6f4a24"/><rect x="12" y="50" width="20" height="8" fill="#262626"/><rect x="14" y="52" width="16" height="4" fill="#efe6d4"/><rect x="98" y="54" width="12" height="30" fill="#6f4a24"/><rect x="94" y="50" width="20" height="8" fill="#262626"/><rect x="96" y="52" width="16" height="4" fill="#efe6d4"/><rect x="104" y="28" width="4" height="22" fill="#6f4a24"/><rect x="108" y="28" width="16" height="10" fill="#4f9a3c"/><rect x="108" y="38" width="10" height="6" fill="#c03434"/></g>
<g class="lvl5"><rect x="42" y="32" width="34" height="4" fill="#e8b83a"/><rect x="28" y="52" width="66" height="4" fill="#e8b83a"/><rect x="52" y="22" width="4" height="10" fill="#6f4a24"/><rect x="56" y="20" width="20" height="10" fill="#e8b83a"/><rect x="60" y="22" width="12" height="6" fill="#c03434"/><rect x="100" y="76" width="10" height="14" fill="#262626"/><rect x="102" y="78" width="6" height="10" fill="#e8b83a"/><rect x="32" y="60" width="4" height="4" fill="#e8b83a"/><rect x="86" y="60" width="4" height="4" fill="#e8b83a"/></g>
<g class="work-state" aria-hidden="true"><g class="logic-caravan-hammer work-animated"><rect x="10" y="74" width="6" height="16" fill="#6f4a24"/><rect x="6" y="70" width="14" height="6" fill="#565656"/></g></g>
</g><g class="asset-fx" aria-hidden="true"><rect x="6" y="98" width="10" height="4" fill="#8f8f8f" class="micro"/></g><g class="asset-fx fx-selection" aria-hidden="true"><rect x="4" y="4" width="24" height="4" fill="#e8b83a"/><rect x="4" y="4" width="4" height="24" fill="#e8b83a"/><rect x="100" y="4" width="24" height="4" fill="#e8b83a"/><rect x="120" y="4" width="4" height="24" fill="#e8b83a"/><rect x="4" y="120" width="24" height="4" fill="#e8b83a"/><rect x="4" y="100" width="4" height="24" fill="#e8b83a"/><rect x="100" y="120" width="24" height="4" fill="#e8b83a"/><rect x="120" y="100" width="4" height="24" fill="#e8b83a"/></g><g class="asset-fx fx-attention" aria-hidden="true"><rect x="100" y="16" width="8" height="16" fill="#cf3c3c"/><rect x="92" y="8" width="24" height="8" fill="#e8b83a"/><rect x="100" y="32" width="8" height="8" fill="#efe6d4"/></g></svg>