<svg xmlns="http://www.w3.org/2000/svg" viewBox="0 0 64 64" shape-rendering="crispEdges" data-level="1">
  <title>Общий амбар</title>
  <style>
    svg[data-level="1"] .lvl2, svg[data-level="1"] .lvl3, svg[data-level="1"] .lvl4, svg[data-level="1"] .lvl5,
    svg[data-level="2"] .lvl3, svg[data-level="2"] .lvl4, svg[data-level="2"] .lvl5,
    svg[data-level="3"] .lvl4, svg[data-level="3"] .lvl5,
    svg[data-level="4"] .lvl5 { display: none }
  </style>

  <rect x="0" y="54" width="64" height="2" fill="#565656"/>
  <rect x="0" y="56" width="64" height="6" fill="#8f8f8f"/>
  <rect x="6" y="58" width="2" height="2" fill="#6e6e6e"/>
  <rect x="32" y="58" width="2" height="2" fill="#6e6e6e"/>
  <rect x="56" y="58" width="2" height="2" fill="#6e6e6e"/>

  <rect x="10" y="28" width="44" height="26" fill="#262626"/>
  <rect x="12" y="30" width="40" height="22" fill="#9a6a38"/>

  <rect x="24" y="6" width="16" height="8" fill="#262626"/>
  <rect x="16" y="12" width="32" height="8" fill="#262626"/>
  <rect x="8" y="18" width="48" height="8" fill="#262626"/>
  <rect x="6" y="24" width="52" height="6" fill="#262626"/>
  <rect x="26" y="8" width="12" height="22" fill="#e0a63a"/>
  <rect x="18" y="14" width="28" height="16" fill="#e0a63a"/>
  <rect x="10" y="20" width="44" height="10" fill="#e0a63a"/>
  <rect x="8" y="26" width="48" height="4" fill="#e0a63a"/>

  <rect x="24" y="36" width="16" height="18" fill="#262626"/>
  <rect x="26" y="38" width="12" height="14" fill="#6f4a24"/>
  <rect x="26" y="44" width="12" height="2" fill="#b07c42"/>

  <g class="lvl2">
    <rect x="28" y="14" width="8" height="8" fill="#262626"/>
    <rect x="30" y="16" width="4" height="4" fill="#6f4a24"/>
  </g>

  <g class="lvl3">
    <rect x="12" y="42" width="10" height="12" fill="#262626"/>
    <rect x="14" y="44" width="6" height="8" fill="#d88a1b"/>
    <rect x="16" y="44" width="2" height="2" fill="#6f4a24"/>
  </g>

  <g class="lvl4">
    <rect x="42" y="42" width="10" height="12" fill="#262626"/>
    <rect x="44" y="44" width="6" height="8" fill="#b07c42"/>
    <rect x="44" y="46" width="6" height="2" fill="#6f4a24"/>
  </g>

  <g class="lvl5">
    <rect x="30" y="2" width="2" height="4" fill="#6f4a24"/>
    <rect x="32" y="2" width="4" height="2" fill="#e8b83a"/>
    <rect x="8" y="28" width="48" height="2" fill="#e8b83a"/>
    <rect x="44" y="46" width="6" height="2" fill="#e8b83a"/>
  </g>
</svg>
