<svg xmlns="http://www.w3.org/2000/svg" viewBox="0 0 64 64" shape-rendering="crispEdges" data-level="1">
  <title>Гончарная печь</title>
  <style>
    svg[data-level="1"] .lvl2, svg[data-level="1"] .lvl3, svg[data-level="1"] .lvl4, svg[data-level="1"] .lvl5,
    svg[data-level="2"] .lvl3, svg[data-level="2"] .lvl4, svg[data-level="2"] .lvl5,
    svg[data-level="3"] .lvl4, svg[data-level="3"] .lvl5,
    svg[data-level="4"] .lvl5 { display: none }
  </style>

  <rect x="0" y="54" width="64" height="2" fill="#565656"/>
  <rect x="0" y="56" width="64" height="6" fill="#8f8f8f"/>
  <rect x="8" y="58" width="2" height="2" fill="#6e6e6e"/>
  <rect x="34" y="58" width="2" height="2" fill="#6e6e6e"/>
  <rect x="54" y="58" width="2" height="2" fill="#6e6e6e"/>

  <rect x="12" y="46" width="40" height="8" fill="#262626"/>
  <rect x="14" y="48" width="36" height="4" fill="#8f8f8f"/>
  <rect x="22" y="48" width="2" height="4" fill="#565656"/>
  <rect x="34" y="48" width="2" height="4" fill="#565656"/>
  <rect x="44" y="48" width="2" height="4" fill="#565656"/>

  <rect x="2" y="50" width="8" height="4" fill="#5d9991"/>
  <rect x="2" y="50" width="8" height="2" fill="#7ab3a9"/>
  <rect x="54" y="52" width="8" height="2" fill="#9a6a38"/>

  <g class="lvl2">
    <rect x="16" y="28" width="32" height="20" fill="#262626"/>
    <rect x="22" y="22" width="20" height="8" fill="#262626"/>
    <rect x="18" y="30" width="28" height="16" fill="#5d9991"/>
    <rect x="24" y="24" width="16" height="8" fill="#5d9991"/>
    <rect x="20" y="30" width="6" height="12" fill="#7ab3a9"/>
    <rect x="26" y="24" width="4" height="4" fill="#7ab3a9"/>
    <rect x="26" y="36" width="12" height="12" fill="#262626"/>
  </g>

  <g class="lvl3">
    <rect x="28" y="8" width="8" height="16" fill="#262626"/>
    <rect x="30" y="10" width="4" height="12" fill="#5d9991"/>
    <rect x="30" y="10" width="4" height="2" fill="#7ab3a9"/>
  </g>

  <g class="lvl4">
    <rect x="28" y="40" width="8" height="8" fill="#cf3c3c"/>
    <rect x="30" y="42" width="4" height="4" fill="#e0a63a"/>
    <rect x="30" y="2" width="4" height="4" fill="#c9c2b4"/>
    <rect x="34" y="6" width="2" height="2" fill="#c9c2b4"/>
  </g>

  <g class="lvl5">
    <rect x="18" y="28" width="28" height="2" fill="#e8b83a"/>
    <rect x="28" y="6" width="8" height="2" fill="#e8b83a"/>
    <rect x="30" y="32" width="4" height="2" fill="#e8b83a"/>
  </g>
</svg>
