<svg xmlns="http://www.w3.org/2000/svg" viewBox="0 0 32 32" shape-rendering="crispEdges" role="img" aria-labelledby="crest_leaf-title crest_leaf-desc" focusable="false"><title id="crest_leaf-title">Лист</title><desc id="crest_leaf-desc">Одноцветная пиксельная эмблема листа с контуром, жилкой и коротким черенком.</desc><style>svg{overflow:visible}.crest{fill:currentColor}</style><g class="crest"><rect x="22" y="4" width="4" height="2"/><rect x="16" y="6" width="10" height="2"/><rect x="12" y="8" width="14" height="2"/><rect x="10" y="10" width="4" height="10"/><rect x="8" y="16" width="4" height="8"/><rect x="10" y="22" width="12" height="2"/><rect x="14" y="20" width="10" height="2"/><rect x="18" y="18" width="6" height="2"/><rect x="10" y="20" width="4" height="2"/><rect x="12" y="18" width="4" height="2"/><rect x="14" y="16" width="4" height="2"/><rect x="16" y="14" width="4" height="2"/><rect x="18" y="12" width="4" height="2"/><rect x="6" y="24" width="8" height="2"/><rect x="4" y="26" width="6" height="2"/></g></svg>